<svg xmlns="http://www.w3.org/2000/svg" viewBox="0 0 48 48"><path d="m41.707 26.364-3.423-1.927a.5.5 0 0 0-.707.243l-.338.809a15.519 15.519 0 0 1-3.871-1.959c-.472-.3-.952-.607-1.459-.9-2.307-1.354-6.381-.666-8.423-.047a448.04 448.04 0 0 1-5.385 1.573 2.454 2.454 0 0 0-1.67 3.073c0 .008.009.015.012.023a5.533 5.533 0 0 1-1.645-.471L8.9 24.009a2.005 2.005 0 0 0-1.934 3.5l7.02 4.5a8.535 8.535 0 0 0 3.76 1.3l13.285 1.3 2.216.431L32 38.017a.5.5 0 0 0 .218.63l3.293 1.834a.491.491 0 0 0 .242.063.5.5 0 0 0 .244-.937l-2.9-1.616 5.19-12.407 2.933 1.651a.5.5 0 1 0 .491-.871ZM31.17 33.623l-13.331-1.3a7.535 7.535 0 0 1-3.318-1.15L7.5 26.67a1.005 1.005 0 0 1 .969-1.756l5.9 2.768a6.6 6.6 0 0 0 2.847.614l.681-.009h.01c1.523-.051 5.313-.149 7.63.026h.038a.5.5 0 0 0 .038-1c-2.36-.18-6.176-.08-7.724-.029h-.018a.5.5 0 0 1-.488-.353 1.452 1.452 0 0 1 .989-1.821c1.656-.476 4-1.154 5.4-1.577 2.448-.743 5.879-1.073 7.627-.048.5.291.966.591 1.427.884a16.555 16.555 0 0 0 4.022 2.042L33.636 34.1Zm-11.3 2.413a.5.5 0 0 1-.5.451h-.05l-1.871-.187a11.547 11.547 0 0 1-5.086-1.763.5.5 0 1 1 .537-.837 10.56 10.56 0 0 0 4.645 1.61l1.871.183a.5.5 0 0 1 .451.543Zm-3.919-13.761a.494.494 0 0 0 .147.022.5.5 0 0 0 .5-.5v-4.03a114.573 114.573 0 0 1 13.591-.01.515.515 0 0 0 .366-.139.5.5 0 0 0 .153-.361v-9.12a.5.5 0 0 0-.482-.5c-15.8-.58-17.623.239-18.021 2.257V19.078c-.251 1.862 3.067 2.988 3.746 3.197Zm-.351-1.183c-1.209-.473-2.533-1.26-2.409-1.911a.229.229 0 0 0 0-.037.523.523 0 0 0 .012-.057v-7.272a9.043 9.043 0 0 0 2.4 1.232v8.045ZM29.708 8.62v8.118a113.809 113.809 0 0 0-13.11.024v-4.075a.5.5 0 0 0-.351-.478c-1.175-.365-2.877-1.2-3.046-1.936v-.249c.253-1.083 1.835-1.924 16.507-1.404Zm4 4.147v4.888a.5.5 0 0 1-1 0v-4.888a.5.5 0 1 1 1 0Zm-1-2.363a.5.5 0 1 1 .5.5.5.5 0 0 1-.5-.504ZM22.494 36.229a.5.5 0 1 1-.5-.5.5.5 0 0 1 .5.5Zm-4.133-23.806a1.028 1.028 0 0 1-.243-1.131 1.018 1.018 0 0 1 .751-.616V10.4a.5.5 0 0 1 1 0v.24h.276a.5.5 0 0 1 0 1h-1.068l.638.692.662.635a1.024 1.024 0 0 1-.508 1.748v.271a.5.5 0 1 1-1 0v-.24h-.276a.5.5 0 0 1 0-1h1.069l-.639-.692Z" data-name="Saving Money"/></svg>