<svg xmlns="http://www.w3.org/2000/svg" enable-background="new 0 0 68 68" viewBox="0 0 68 68"><path d="M53.7338905,45.5948677c1.3898315-2.246521,2.4141846-4.6738892,3.0119019-7.2556763l6.8886719-0.5175781V27.7073574
		L56.746769,27.177084c-0.6005859-2.59375-1.625-5.0566406-3.0537109-7.3408203l4.4980469-5.2548828L51.0534096,7.442709
		l-5.2451172,4.4882813c-2.2636719-1.3994141-4.7177734-2.4150391-7.3164063-3.0273438l-0.5703125-6.9042969H27.8190365
		L27.248724,8.9026699c-2.5751953,0.6025391-5.0136719,1.6142578-7.2685547,3.0166016l-5.2822266-4.4726563L7.5534115,14.576498
		l4.4726563,5.2958984c-1.4042969,2.2587891-2.4169922,4.6982422-3.0175781,7.2695313l-6.8886719,0.5703125v10.1025372
		l6.9023438,0.5703125c0.6025391,2.5791016,1.6103516,5.0136719,3.0039063,7.2568359l-4.4726563,5.2958984l7.1435547,7.1289063
		l5.2929688-4.4697266c2.2578125,1.4169922,4.7089844,2.4345703,7.3046875,3.0302734l0.5175781,6.8876953h10.1142559
		l0.53125-6.8916016c2.4932861-0.5839233,4.8190308-1.5438843,6.9549561-2.8239746l10.4962158,10.4909706
		c2.2793465,2.2773285,5.9702644,2.2824554,8.2558632,0.0029297c2.2815018-2.2794876,2.2920227-5.9755554,0.0029297-8.2646523
		L53.7338905,45.5948677z M28.1588802,22.3059902l-1.3154297,0.5966797l6.0673809,6.0673828l-4.0673809,4.0664043
		l-6.0693359-6.069334l-0.5947266,1.3212891c-3.5984898,7.9918766,2.365942,16.8007793,10.8867168,16.8007793
		c1.0839844,0,2.1572266-0.1455078,3.1992188-0.4326172l2.6171875,2.6171875
		c-1.8867188,0.7871094-3.9375,1.1982422-6.0058594,1.1982422c-8.6650372,0-15.7138653-7.0556641-15.7138653-15.7275391
		c0-8.6572247,7.0488281-15.70117,15.7138653-15.70117c8.6582031,0,15.7021484,7.0439453,15.7021484,15.70117
		c0,2.1865234-0.4589844,4.3603516-1.3359375,6.3583984l-2.7128906-2.7119141
		C47.2477226,26.5687885,37.2692375,18.1827183,28.1588802,22.3059902z M36.5778236,54.9768867l-0.5029297,6.5380859h-6.4072247
		l-0.4912109-6.5429688L28.429388,54.824543c-5.0546608-0.9943581-8.2167778-3.5180244-8.5859375-3.7216797l-5.0332031,4.2509766
		l-4.5419922-4.53125l4.2470703-5.0283203l-0.4150391-0.625c-2.7824421-4.1838417-3.3350792-8.3405571-3.4267578-8.6542969
		l-6.5537109-0.5419922v-6.4189434l6.5410156-0.5419922l0.1484375-0.7373047
		c1.0049419-5.0074425,3.4901829-8.1609707,3.7060547-8.5546875l-4.2470703-5.0283203l4.5410156-4.5302734l5.0166016,4.2480469
		l0.6259766-0.4160156c4.2117672-2.7999258,8.3688107-3.3521395,8.6669922-3.4394531l0.5419922-6.5546875h6.4189434
		l0.5419922,6.5527344l0.734375,0.1494141c5.0675468,1.0352488,8.2451019,3.5197248,8.6152344,3.7216797l4.9765625-4.2578125
		l4.5205078,4.5214844l-4.2734375,4.9921875l0.421875,0.6298828c2.8531532,4.2661533,3.3829155,8.4280853,3.4755859,8.7460938
		l6.5419922,0.5039063v6.4072247l-6.5410156,0.4912109c-0.1893158,0.6863518-0.4095726,3.6489601-2.7988281,7.6972656
		l-3.5523071-3.5518799c1.1989746-2.4395752,1.8364868-5.1378784,1.8364868-7.8582764
		c0-9.7607403-7.9414063-17.70117-17.7021484-17.70117c-9.7675762,0-17.7138653,7.9404297-17.7138653,17.70117
		c0,9.7753906,7.9462891,17.7275391,17.7138653,17.7275391c2.6054077,0,5.1859131-0.5861816,7.5155029-1.6885986
		l3.5714111,3.5714111C40.3180809,54.4257202,36.9800224,54.8667374,36.5778236,54.9768867z M62.7516518,62.8772774
		c-1.453125,1.4472694-3.9794922,1.4472694-5.4287109-0.0009766L36.8190346,42.3821602l-0.5859375,0.1943359
		c-1.0234375,0.3398438-2.0888672,0.5126953-3.1669922,0.5126953c-6.5809708,0-11.3426666-6.3086548-9.5742168-12.57617
		l5.3515625,5.3515606l6.8955059-6.8945293l-5.3535137-5.3535156c7.5814457-2.1379166,14.6028423,5.1001434,12.0644512,12.7421856
		l-0.1943359,0.5859375l5.5048828,5.5048828l14.9931641,14.9931641
		C64.2556229,58.9447289,64.2549057,61.376049,62.7516518,62.8772774z"/><path d="M59.7965736,57.0813789c-1.5810547,0-2.8681641,1.2871094-2.8681641,2.8681641
		c0,1.5878906,1.2871094,2.8789063,2.8681641,2.8789063c1.5878906,0,2.8789063-1.2910156,2.8789063-2.8789063
		C62.6754799,58.3684883,61.3844643,57.0813789,59.7965736,57.0813789z M59.7965736,60.8284492
		c-0.4785156,0-0.8681641-0.3945313-0.8681641-0.8789063c0-0.4785156,0.3896484-0.8681641,0.8681641-0.8681641
		c0.484375,0,0.8789063,0.3896484,0.8789063,0.8681641C60.6754799,60.433918,60.2809486,60.8284492,59.7965736,60.8284492z"/></svg>