<svg xmlns="http://www.w3.org/2000/svg" width="183.668" height="127.463" viewBox="0 0 183.668 127.463"><defs><style>.a{fill:#979797;}.b{fill:#007ec5;}.c{fill:#fff;}</style></defs><g transform="translate(-79 -38)"><g transform="translate(79 38)"><ellipse class="a" cx="91.834" cy="46.47" rx="91.834" ry="46.47" transform="translate(0 0)"/><path class="b" d="M286.206,328.915c-6.405,8.594-26.152,38.267-34.385,87.109a45.992,45.992,0,0,1-8.715-.025c-8.2-48.638-27.757-78.185-34.271-86.941C177.62,336.48,156,352.525,156,371.132c0,25.665,41.116,46.47,91.834,46.47s91.834-20.805,91.834-46.47C339.668,352.4,317.756,336.27,286.206,328.915ZM159.043,371.132a23.882,23.882,0,0,1,1.567-8.386c19.622-6.17,45.92-.726,63.595,20.687a83.2,83.2,0,0,1,16.86,32.486C195.193,414.167,159.043,394.793,159.043,371.132ZM254.6,415.92a83.209,83.209,0,0,1,16.86-32.486c17.675-21.413,43.973-26.857,63.595-20.687a23.868,23.868,0,0,1,1.567,8.386C336.625,394.793,300.475,414.167,254.6,415.92Z" transform="translate(-156 -324.662)"/><path class="b" d="M278.863,409.605c8.184-45.364,25.709-73.543,33.362-84.135a176.822,176.822,0,0,0-66.631.129C253.3,336.294,270.713,364.431,278.863,409.605Z" transform="translate(-187.398 -322.367)"/></g><g transform="translate(87.969 145.264)"><path class="c" d="M176.191,507.553l-6.385-19.561h2.729l3.046,9.635c.841,2.642,1.567,5.021,2.09,7.313h.058c.551-2.262,1.363-4.729,2.234-7.284l3.308-9.665h2.7l-6.994,19.561Z" transform="translate(-169.806 -487.673)"/><path class="c" d="M200.468,487.992v19.561h-2.524V487.992Z" transform="translate(-179.667 -487.673)"/><path class="c" d="M208.618,487.992h2.524v9.433h.088c.522-.755,1.044-1.452,1.538-2.09l5.978-7.343h3.135l-7.081,8.3,7.633,11.261h-2.99L213,497.947l-1.858,2.147v7.459h-2.524Z" transform="translate(-183.407 -487.673)"/><path class="c" d="M235.635,501.4l-2.032,6.153h-2.612l6.646-19.561h3.048l6.675,19.561h-2.7l-2.089-6.153Zm6.414-1.974-1.916-5.63c-.435-1.276-.726-2.438-1.015-3.569h-.058c-.29,1.161-.609,2.35-.986,3.541l-1.916,5.658Z" transform="translate(-191.248 -487.673)"/><path class="c" d="M259.723,504.305a8.944,8.944,0,0,0,4.527,1.277c2.583,0,4.092-1.365,4.092-3.337,0-1.83-1.045-2.874-3.686-3.89-3.193-1.131-5.166-2.786-5.166-5.543,0-3.047,2.525-5.311,6.327-5.311a8.9,8.9,0,0,1,4.324.957l-.7,2.06a7.8,7.8,0,0,0-3.714-.929c-2.67,0-3.686,1.6-3.686,2.932,0,1.828,1.189,2.727,3.889,3.773,3.308,1.277,4.992,2.874,4.992,5.745,0,3.019-2.235,5.63-6.85,5.63a10.1,10.1,0,0,1-4.992-1.248Z" transform="translate(-201.093 -487.501)"/><path class="c" d="M306.351,506.574a18.23,18.23,0,0,1-6.008,1.072A9.185,9.185,0,0,1,290.3,497.78c.029-5.833,4.034-10.1,10.594-10.1a12.086,12.086,0,0,1,4.875.9l-.609,2.06a10.148,10.148,0,0,0-4.324-.841c-4.759,0-7.865,2.959-7.865,7.865,0,4.963,2.989,7.893,7.545,7.893a8.244,8.244,0,0,0,3.367-.522V499.2h-3.976V497.17h6.444Z" transform="translate(-212.033 -487.564)"/><path class="c" d="M320.941,488.175a26.3,26.3,0,0,1,4.846-.405c2.7,0,4.441.493,5.66,1.6a4.875,4.875,0,0,1,1.538,3.714,5.136,5.136,0,0,1-3.686,4.993v.087c1.509.522,2.409,1.916,2.873,3.947a31.174,31.174,0,0,0,1.509,5.37h-2.612a25.275,25.275,0,0,1-1.306-4.673c-.58-2.7-1.626-3.715-3.918-3.8h-2.38v8.475h-2.524Zm2.524,8.911h2.583c2.7,0,4.411-1.482,4.411-3.715,0-2.526-1.829-3.629-4.5-3.658a10.367,10.367,0,0,0-2.5.233Z" transform="translate(-222.77 -487.595)"/><path class="c" d="M361.191,497.4c0,6.733-4.092,10.3-9.084,10.3-5.165,0-8.794-4-8.794-9.925,0-6.211,3.86-10.274,9.085-10.274C357.737,487.5,361.191,491.593,361.191,497.4Zm-15.178.32c0,4.18,2.264,7.924,6.239,7.924,4.006,0,6.27-3.686,6.27-8.127,0-3.89-2.032-7.951-6.24-7.951C348.1,489.563,346.013,493.422,346.013,497.717Z" transform="translate(-230.61 -487.501)"/><path class="c" d="M378.381,487.992v11.58c0,4.383,1.945,6.24,4.557,6.24,2.9,0,4.759-1.916,4.759-6.24v-11.58h2.555V499.4c0,6.008-3.164,8.475-7.4,8.475-4.006,0-7.024-2.294-7.024-8.358V487.992Z" transform="translate(-242.005 -487.673)"/><path class="c" d="M404.768,488.146a29.337,29.337,0,0,1,4.846-.376c2.5,0,4.325.581,5.485,1.624a5.262,5.262,0,0,1,1.712,4.093,5.765,5.765,0,0,1-1.509,4.18,8.11,8.11,0,0,1-5.979,2.147,8.634,8.634,0,0,1-2.032-.175v7.837h-2.524Zm2.524,9.433a8.427,8.427,0,0,0,2.09.2c3.047,0,4.9-1.48,4.9-4.179,0-2.583-1.828-3.831-4.614-3.831a10.58,10.58,0,0,0-2.38.2Z" transform="translate(-252.147 -487.595)"/></g></g></svg>