<svg xmlns="http://www.w3.org/2000/svg" viewBox="0 0 60 60"><path d="m58.451 26.829-4.857-1.223a22.828 22.828 0 0 0-.98-3.606l3.612-3.481a2.015 2.015 0 0 0 .389-2.355c-.208-.4-.417-.79-.645-1.176l-.19-.32c-.16-.272-.318-.542-.491-.813a2.013 2.013 0 0 0-2.234-.826l-4.816 1.379a24.109 24.109 0 0 0-2.648-2.642l1.381-4.821a2.023 2.023 0 0 0-.834-2.238c-.264-.169-.534-.327-.806-.487l-.321-.191a28.37 28.37 0 0 0-1.186-.65 2.016 2.016 0 0 0-2.345.4l-3.473 3.6a23.315 23.315 0 0 0-3.626-.97l-1.214-4.873a1.991 1.991 0 0 0-1.829-1.5 27.689 27.689 0 0 0-2.672 0 1.994 1.994 0 0 0-1.836 1.513l-1.224 4.857a22.779 22.779 0 0 0-3.606.98l-3.482-3.612a2.011 2.011 0 0 0-2.354-.389c-.4.208-.79.417-1.176.645l-.323.192c-.27.158-.539.316-.81.489a2.018 2.018 0 0 0-.826 2.234l1.38 4.816a23.858 23.858 0 0 0-2.643 2.648l-4.821-1.381a2.021 2.021 0 0 0-2.237.833c-.175.274-.339.552-.5.832l-.174.295c-.225.379-.43.766-.651 1.185a2.011 2.011 0 0 0 .4 2.347l3.6 3.474a23.268 23.268 0 0 0-.97 3.625l-4.877 1.214a1.99 1.99 0 0 0-1.5 1.83C.01 29.108 0 29.555 0 30s.01.892.031 1.336a2 2 0 0 0 1.517 1.835l4.859 1.223A22.507 22.507 0 0 0 7.386 38l-3.611 3.481a2.02 2.02 0 0 0-.375 2.376c.205.389.41.776.634 1.154l.175.3c.164.28.328.558.5.832a1 1 0 1 0 1.684-1.078 21.055 21.055 0 0 1-.462-.767l-.18-.306c-.208-.347-.4-.7-.586-1.068l3.61-3.481a2 2 0 0 0 .488-2.1 21.719 21.719 0 0 1-.888-3.3 1.991 1.991 0 0 0-1.482-1.593l-4.863-1.2Q2 30.622 2 30c0-.414.009-.829.032-1.229L6.9 27.559a1.985 1.985 0 0 0 1.476-1.585 21.787 21.787 0 0 1 .89-3.312 2 2 0 0 0-.489-2.1l-3.611-3.487c.188-.358.376-.716.584-1.064l.18-.3c.151-.259.3-.516.465-.755l4.816 1.379a2 2 0 0 0 2.068-.619 22.465 22.465 0 0 1 2.434-2.434 2 2 0 0 0 .619-2.062l-1.394-4.827c.243-.155.491-.3.74-.448l.332-.2c.356-.212.721-.4 1.07-.586l3.48 3.609a2 2 0 0 0 2.107.489 21.714 21.714 0 0 1 3.3-.888 1.985 1.985 0 0 0 1.593-1.477l1.2-4.863a25.454 25.454 0 0 1 2.471 0l1.21 4.871a1.984 1.984 0 0 0 1.585 1.475 21.668 21.668 0 0 1 3.313.891 2 2 0 0 0 2.1-.49L42.9 5.154c.365.193.73.384 1.084.595l.331.2c.25.147.5.293.73.451l-1.375 4.811a2 2 0 0 0 .619 2.067 22.474 22.474 0 0 1 2.434 2.435 1.99 1.99 0 0 0 2.062.618l4.822-1.393c.156.244.3.493.449.743l.194.33c.212.355.4.72.586 1.069l-3.609 3.48a2 2 0 0 0-.489 2.107 21.683 21.683 0 0 1 .888 3.3 1.989 1.989 0 0 0 1.482 1.6l4.863 1.2Q58 29.379 58 30c0 .414-.01.828-.031 1.229L53.1 32.441a1.984 1.984 0 0 0-1.475 1.585 21.668 21.668 0 0 1-.891 3.313 2 2 0 0 0 .49 2.1l3.62 3.465c-.193.365-.384.73-.595 1.084l-.2.331c-.147.25-.293.5-.451.73l-4.809-1.379a2 2 0 0 0-2.067.619 22.474 22.474 0 0 1-2.435 2.434 2 2 0 0 0-.618 2.062l1.393 4.822c-.244.156-.493.3-.743.449l-.33.194c-.355.212-.72.4-1.069.586l-3.48-3.609a2 2 0 0 0-2.107-.489 21.683 21.683 0 0 1-3.3.888 1.989 1.989 0 0 0-1.6 1.482l-1.2 4.863c-.828.039-1.668.041-2.472 0L27.559 53.1a1.983 1.983 0 0 0-1.585-1.475 21.7 21.7 0 0 1-3.313-.891 2 2 0 0 0-2.1.49L17.1 54.846c-.365-.193-.73-.384-1.084-.595l-.334-.2c-.249-.148-.5-.293-.74-.448a1 1 0 0 0-1.076 1.686c.264.169.533.327.8.485l.325.193c.384.227.779.436 1.185.65a2.017 2.017 0 0 0 2.345-.4l3.474-3.6a23.2 23.2 0 0 0 3.626.97l1.213 4.873a1.99 1.99 0 0 0 1.829 1.505Q29.331 60 30 60c.446 0 .892-.01 1.334-.031a2 2 0 0 0 1.837-1.518l1.223-4.857a22.828 22.828 0 0 0 3.606-.98l3.481 3.612a2.013 2.013 0 0 0 2.355.389c.4-.208.79-.417 1.176-.645l.32-.19c.272-.16.542-.318.813-.491a2.02 2.02 0 0 0 .826-2.234l-1.379-4.816a24.109 24.109 0 0 0 2.642-2.648l4.821 1.381a2.021 2.021 0 0 0 2.238-.834c.169-.264.327-.534.487-.806l.191-.321c.227-.385.436-.78.65-1.186a2.013 2.013 0 0 0-.4-2.345l-3.6-3.473a23.315 23.315 0 0 0 .97-3.626l4.873-1.214a1.991 1.991 0 0 0 1.505-1.829 28.443 28.443 0 0 0 0-2.672 2 2 0 0 0-1.518-1.837Z"/><path d="M30 48a18.1 18.1 0 1 0-14.64-7.592L.889 54.879a2.975 2.975 0 0 0 0 4.239 2.979 2.979 0 0 0 4.233 0l14.472-14.477A17.941 17.941 0 0 0 30 48ZM14 30a16.073 16.073 0 1 1 7.024 13.211l2.166-2.166A12.8 12.8 0 0 0 30 43a13 13 0 1 0-13-13 12.791 12.791 0 0 0 1.956 6.811l-2.166 2.166A15.938 15.938 0 0 1 14 30Zm20 7a3 3 0 0 0 3-3v-8a3 3 0 0 0-3-3h-8a3 3 0 0 0 0 6h.767l-6.351 6.351A10.8 10.8 0 0 1 19 30a11 11 0 1 1 11 11 10.794 10.794 0 0 1-5.349-1.416L31 33.234V34a3 3 0 0 0 3 3ZM3.705 57.7a1 1 0 0 1-1.41 0 .976.976 0 0 1 0-1.4l27.589-27.59a1 1 0 0 0-.703-1.71H26a1 1 0 0 1 0-2h8a1 1 0 0 1 1 1v8a1 1 0 0 1-2 0v-3.18a1 1 0 0 0-1.707-.707Z"/></svg>