<svg xmlns="http://www.w3.org/2000/svg" enable-background="new 0 0 67 67" viewBox="0 0 67 67"><path d="M52.3,57.2c2.7,0,4.8-2.2,4.8-4.8c0-2.7-2.2-4.8-4.8-4.8c-2.7,0-4.8,2.2-4.8,4.8C47.5,55,49.6,57.2,52.3,57.2z M52.3,49.5
		c1.6,0,2.8,1.3,2.8,2.8s-1.3,2.8-2.8,2.8s-2.8-1.3-2.8-2.8S50.8,49.5,52.3,49.5z"/><path d="M3.7,66.5h41c1.7,0,3.2-1.4,3.2-3.2v-0.2c0.4,0.2,0.7,0.3,1.1,0.4l0.8,2.3c0.1,0.4,0.5,0.7,0.9,0.7H54
		c0.4,0,0.8-0.3,0.9-0.7l0.8-2.3c0.7-0.2,1.4-0.5,2.1-0.9l2.2,1.1c0.4,0.2,0.8,0.1,1.1-0.2l2.4-2.4c0.3-0.3,0.4-0.8,0.2-1.1
		l-1.1-2.2c0.4-0.7,0.7-1.4,0.9-2.1l2.3-0.8c0.4-0.1,0.7-0.5,0.7-0.9v-3.3c0-0.4-0.3-0.8-0.7-0.9l-2.3-0.8c-0.2-0.7-0.5-1.4-0.9-2.1
		l1.1-2.2c0.2-0.4,0.1-0.8-0.2-1.1l-2.4-2.4c-0.3-0.3-0.8-0.4-1.1-0.2L57.8,42c-0.7-0.4-1.4-0.6-2.1-0.9l-0.8-2.3
		c-0.1-0.4-0.5-0.7-0.9-0.7h-3.3c-0.4,0-0.8,0.3-0.9,0.7l-0.8,2.3c-0.4,0.1-0.8,0.3-1.1,0.4v-26c0-0.4-0.1-0.7-0.4-0.9L33.5,0.8
		c-0.2-0.2-0.5-0.3-0.7-0.3H3.7c-1.7,0-3.2,1.4-3.2,3.2v59.7C0.5,65.1,1.9,66.5,3.7,66.5z M49.9,42.9c0.3-0.1,0.6-0.3,0.7-0.6
		l0.7-2.1h1.9l0.7,2.1c0.1,0.3,0.4,0.6,0.7,0.6c0.9,0.2,1.8,0.6,2.6,1.1c0.3,0.2,0.7,0.2,1,0l2-1l1.4,1.4l-1,2c-0.1,0.3-0.1,0.7,0,1
		c0.5,0.8,0.8,1.7,1.1,2.6c0.1,0.3,0.3,0.6,0.6,0.7l2.1,0.7v1.9L62.4,54c-0.3,0.1-0.6,0.4-0.6,0.7c-0.2,0.9-0.6,1.8-1.1,2.6
		c-0.2,0.3-0.2,0.6,0,1l1,2l-1.4,1.3l-2-1c-0.3-0.1-0.7-0.1-0.9,0c-0.8,0.5-1.7,0.8-2.6,1.1c-0.3,0.1-0.6,0.3-0.7,0.6l-0.7,2.1h-1.9
		l-0.7-2.1c-0.1-0.3-0.4-0.6-0.7-0.6c-0.9-0.2-1.8-0.6-2.6-1.1c-0.3-0.2-0.6-0.2-0.9,0l-2,1L43,60.3l1-2c0.1-0.3,0.1-0.7,0-1
		c-0.5-0.8-0.8-1.6-1.1-2.6c-0.1-0.3-0.3-0.6-0.6-0.7l-2.1-0.7v-1.9l2.1-0.7c0.3-0.1,0.6-0.4,0.6-0.7c0.2-0.9,0.6-1.8,1.1-2.6
		c0.2-0.3,0.2-0.7,0-1l-1-2l1.4-1.4l2,1c0.3,0.1,0.7,0.1,1,0C48.2,43.5,49,43.2,49.9,42.9z M33.8,3.9l10.6,10.6H33.8V3.9z M2.5,3.7
		C2.5,3,3,2.5,3.7,2.5h28.1v13c0,0.6,0.4,1,1,1h13v25l-1.2-0.6c-0.4-0.2-0.8-0.1-1.1,0.2l-2.4,2.4c-0.3,0.3-0.4,0.8-0.2,1.1l1.1,2.2
		c-0.4,0.7-0.6,1.4-0.9,2.1l-2.3,0.8c-0.4,0.1-0.7,0.5-0.7,0.9V54c0,0.4,0.3,0.8,0.7,0.9l2.3,0.8c0.2,0.7,0.5,1.4,0.9,2.1L40.9,60
		c-0.2,0.4-0.1,0.8,0.2,1.1l2.4,2.4c0.3,0.3,0.8,0.4,1.1,0.2l1.2-0.6v0.2c0,0.6-0.5,1.2-1.2,1.2h-41c-0.6,0-1.2-0.5-1.2-1.2V3.7z"/><path d="M8 16.9h18.3c.6 0 1-.4 1-1 0-.6-.4-1-1-1H8c-.6 0-1 .4-1 1C7 16.5 7.4 16.9 8 16.9zM8 23.9h32.3c.6 0 1-.4 1-1s-.4-1-1-1H8c-.6 0-1 .4-1 1S7.4 23.9 8 23.9zM8 30.9h32.3c.6 0 1-.4 1-1s-.4-1-1-1H8c-.6 0-1 .4-1 1S7.4 30.9 8 30.9zM8 10h18.3c.6 0 1-.4 1-1s-.4-1-1-1H8C7.4 8 7 8.4 7 9S7.4 10 8 10zM10.8 59.7c.2.2.5.3.7.3s.5-.1.7-.3l7.1-7.1c.4-.4.4-1 0-1.4s-1-.4-1.4 0l-6.4 6.4-3.4-3.4c-.4-.4-1-.4-1.4 0s-.4 1 0 1.4L10.8 59.7zM34.3 50.7H24c-.6 0-1 .4-1 1s.4 1 1 1h10.3c.6 0 1-.4 1-1S34.8 50.7 34.3 50.7zM34.3 58H24c-.6 0-1 .4-1 1s.4 1 1 1h10.3c.6 0 1-.4 1-1S34.8 58 34.3 58zM11.1 45.1c.2.2.5.3.7.3s.5-.1.7-.3l7.1-7.1c.4-.4.4-1 0-1.4s-1-.4-1.4 0L11.8 43l-3.4-3.4c-.4-.4-1-.4-1.4 0s-.4 1 0 1.4L11.1 45.1zM24.3 36.1c-.6 0-1 .4-1 1s.4 1 1 1h16.3c.6 0 1-.4 1-1s-.4-1-1-1H24.3zM34.6 43.4H24.3c-.6 0-1 .4-1 1s.4 1 1 1h10.3c.6 0 1-.4 1-1S35.1 43.4 34.6 43.4z"/></svg>