<svg xmlns="http://www.w3.org/2000/svg" enable-background="new 0 0 512 512" viewBox="0 0 512 512"><path d="M496,76.45h-37.097V56.324c0-4.418-3.582-8-8-8c-92.079,0-121.647,8.01-180.555,23.968
	c-4.579,1.241-9.356,2.534-14.348,3.875c-4.991-1.341-9.769-2.634-14.348-3.875c-58.908-15.958-88.476-23.968-180.555-23.968
	c-4.418,0-8,3.582-8,8V76.45H16c-4.418,0-8,3.582-8,8v345.29c0,4.418,3.582,8,8,8h197.093v0.149
	c0,14.219,11.568,25.788,25.787,25.788h34.617c14.219,0,25.788-11.568,25.788-25.788v-0.149H496c4.418,0,8-3.582,8-8V84.45
	C504,80.031,500.418,76.45,496,76.45z M274.531,87.735c57.542-15.588,84.751-22.959,168.371-23.391V382.44
	C365.06,383.099,306.28,393.46,264,414.004V90.583C267.62,89.607,271.133,88.656,274.531,87.735z M69.097,64.344
	c83.621,0.432,110.829,7.803,168.372,23.391c3.403,0.922,6.907,1.871,10.531,2.848v323.414
	c-42.279-20.542-101.063-30.897-178.903-31.556V64.344z M488,421.739H291.285c-4.418,0-8,3.582-8,8v8.149
	c0,5.397-4.391,9.788-9.788,9.788h-34.617c-5.396,0-9.787-4.391-9.787-9.788v-8.149c0-4.418-3.582-8-8-8H24V92.45h29.097v297.957
	c0,4.418,3.582,8,8,8c86.729,0,149.173,11.711,190.903,35.804c1.238,0.714,2.619,1.072,4,1.072s2.762-0.357,4-1.072
	c41.729-24.093,104.174-35.804,190.902-35.804c4.418,0,8-3.582,8-8V92.45H488V421.739z M233.663,193.817l-71.114-41.057
	c-2.476-1.429-5.524-1.429-8,0l-71.114,41.057c-2.475,1.429-4,4.07-4,6.928v82.115c0,2.858,1.525,5.499,4,6.928l71.114,41.057
	c1.238,0.714,2.619,1.072,4,1.072s2.762-0.357,4-1.072l71.114-41.057c2.475-1.429,4-4.07,4-6.928v-82.115
	C237.663,197.888,236.138,195.247,233.663,193.817z M158.549,232.566l-9.245-5.338l55.114-31.82l9.245,5.338L158.549,232.566z
	 M128.681,215.321l55.114-31.82l4.623,2.669l-55.114,31.82L128.681,215.321z M120.681,229.178l4.623,2.669v13.86l-4.623-2.668
	V229.178z M158.549,168.926l9.245,5.338l-55.114,31.82l-9.246-5.338L158.549,168.926z M95.435,214.602l9.246,5.338v27.717
	c0,2.858,1.525,5.499,4,6.928l20.623,11.906c1.238,0.714,2.619,1.072,4,1.072s2.762-0.357,4-1.072c2.475-1.429,4-4.07,4-6.928
	v-18.479l9.246,5.338v63.64l-55.114-31.82V214.602z M166.549,310.062v-63.64l55.114-31.82v63.64L166.549,310.062z M348.761,183.564
	c0-4.418,3.582-8,8-8h60.769c4.418,0,8,3.582,8,8s-3.582,8-8,8h-60.769C352.343,191.564,348.761,187.983,348.761,183.564z
	 M348.761,157.703c0-4.418,3.582-8,8-8h60.769c4.418,0,8,3.582,8,8s-3.582,8-8,8h-60.769
	C352.343,165.703,348.761,162.121,348.761,157.703z M348.761,228.873c0-4.418,3.582-8,8-8h60.769c4.418,0,8,3.582,8,8s-3.582,8-8,8
	h-60.769C352.343,236.873,348.761,233.291,348.761,228.873z M348.761,254.734c0-4.418,3.582-8,8-8h60.769c4.418,0,8,3.582,8,8
	s-3.582,8-8,8h-60.769C352.343,262.734,348.761,259.152,348.761,254.734z M348.761,325.904c0-4.418,3.582-8,8-8h60.769
	c4.418,0,8,3.582,8,8s-3.582,8-8,8h-60.769C352.343,333.904,348.761,330.322,348.761,325.904z M348.761,300.042c0-4.418,3.582-8,8-8
	h60.769c4.418,0,8,3.582,8,8s-3.582,8-8,8h-60.769C352.343,308.042,348.761,304.46,348.761,300.042z M296.569,196.735h21.809
	c8.379,0,15.197-6.817,15.197-15.197v-21.809c0-8.379-6.817-15.196-15.197-15.196h-21.809c-8.379,0-15.197,6.817-15.197,15.196
	v21.809C281.372,189.917,288.19,196.735,296.569,196.735z M297.372,160.533h20.202v20.202h-20.202V160.533z M296.569,267.904h21.809
	c8.379,0,15.197-6.817,15.197-15.196v-21.809c0-8.379-6.817-15.197-15.197-15.197h-21.809c-8.379,0-15.197,6.817-15.197,15.197
	v21.809C281.372,261.087,288.19,267.904,296.569,267.904z M297.372,231.702h20.202v20.202h-20.202V231.702z M296.569,339.074h21.809
	c8.379,0,15.197-6.817,15.197-15.196v-21.809c0-8.379-6.817-15.197-15.197-15.197h-21.809c-8.379,0-15.197,6.817-15.197,15.197
	v21.809C281.372,332.257,288.19,339.074,296.569,339.074z M297.372,302.872h20.202v20.202h-20.202V302.872z"/></svg>