<svg xmlns="http://www.w3.org/2000/svg" enable-background="new 0 0 100 100" viewBox="0 0 100 100"><path d="M86.077,13.92H77.06H40.665H21.001h-7.08v6.765v2.255v63.139h72.159V22.941v-2.255V13.92H86.077z M83.825,83.825h-67.65
	V22.941h4.196l0.376-1.128l0.376-1.128l1.504-4.51H39.04l1.504,4.51l0.376,1.128l0.376,1.128H77.06h6.765V83.825z M16.175,16.176
	h4.073l-1.503,4.51h-2.57V16.176z M77.06,16.176v4.51H42.92l-1.503-4.51H77.06z M83.823,16.176v4.51h-4.508v-4.51H83.823z
	 M36.47,20.685h-2.255v-2.255h2.255V20.685z M31.96,20.685h-2.255v-2.255h2.255V20.685z M27.45,20.685h-2.255v-2.255h2.255V20.685z
	 M22.94,53.382h18.04v2.255H22.94V53.382z M35.343,57.893v2.255h-6.765v-2.255H35.343z M37.598,57.893h3.382v2.255h-3.382V57.893z
	 M19.558,60.147v-2.255h6.765v2.255H19.558z M19.558,62.403H40.98v2.255H19.558V62.403z M27.45,71.423h-7.892v-2.255h7.892V71.423z
	 M37.598,69.168v2.255h-7.893v-2.255H37.598z M19.558,73.677H40.98v2.255H19.558V73.677z M19.558,78.187h15.785v2.255H19.558V78.187
	z M31.96,27.451h-1.127v0.061c-1.438,0.145-2.844,0.56-4.118,1.231l-0.998,0.525l0.555,1.054l0.496,0.942l0.998-0.525
	c0.952-0.5,1.996-0.827,3.067-0.961v8.205v1.211l0.87,0.871l2.719,2.719l3.071,3.07c-1.576,1.228-3.503,1.894-5.532,1.894
	c-1.334,0-2.616-0.283-3.812-0.843l-1.022-0.478l-0.446,0.954l-0.508,1.088l1.021,0.478C28.689,49.645,30.293,50,31.96,50
	c2.632,0,5.128-0.896,7.136-2.545l0.039,0.04l0.798-0.798L40.73,45.9l-0.039-0.04c1.648-2.009,2.544-4.503,2.544-7.135
	c0-1.158-0.175-2.291-0.52-3.383l0.053-0.023l-0.445-1.037c0-0.002-0.002-0.003-0.002-0.005l-0.442-1.031l-0.058,0.025
	c-1.79-3.24-5.052-5.391-8.733-5.759v-0.063H31.96z M35.591,35.943l-2.503,1.072v-7.239c2.779,0.348,5.238,1.97,6.654,4.388
	L35.591,35.943z M36.771,41.941l-2.835-2.836l6.696-2.87c0.232,0.806,0.349,1.64,0.349,2.49c0,2.029-0.665,3.956-1.894,5.531
	L36.771,41.941z M21.817,45.49h-2.819v-2.255h2.819h1.063h0.628c0.622,0,1.128-0.506,1.128-1.128c0-0.621-0.505-1.127-1.128-1.127
	h-1.127c-0.105,0-0.209-0.006-0.312-0.015c-1.719-0.158-3.071-1.607-3.071-3.367c0-1.673,1.222-3.062,2.819-3.332v-1.178h1.707
	h0.548v1.127h2.819v2.255h-2.819h-1.691c-0.112,0-0.219,0.021-0.321,0.052c-0.465,0.139-0.806,0.566-0.806,1.075
	c0,0.416,0.23,0.777,0.567,0.972c0.166,0.096,0.356,0.155,0.561,0.155h1.127c1.865,0,3.383,1.517,3.383,3.382
	c0,1.586-1.098,2.916-2.572,3.28c-0.081,0.02-0.163,0.037-0.247,0.052v1.178h-2.255V45.49z M43.236,27.451h37.207v23.677H43.236
	v-2.255h1.127h33.824V29.706H44.363h-1.127V27.451z M47.745,42.107v4.51h-2.254v-4.51H47.745z M52.255,38.725v7.892H50v-7.892
	H52.255z M56.765,36.471v10.147H54.51V36.471H56.765z M61.275,39.853v6.765H59.02v-6.765H61.275z M65.785,34.216v12.402H63.53
	V34.216H65.785z M70.295,31.961v14.657H68.04V31.961H70.295z M74.805,35.343v11.274H72.55V35.343H74.805z M53.396,54.529h-9.019
	v5.638v2.255v18.04h9.019h2.255h24.805v-18.04v-2.255v-5.638H55.651H53.396z M78.201,78.206h-22.55V62.422h22.55V78.206z
	 M46.631,56.784h6.764v3.382h-6.764V56.784z M46.631,62.422h6.764v15.785h-6.764V62.422z M78.201,60.167h-22.55v-3.382h22.55V60.167
	z M75.946,66.932h-18.04v-2.255h18.04V66.932z M65.798,71.442h-7.892v-2.255h7.892V71.442z M68.053,69.187h7.893v2.255h-7.893
	V69.187z M75.946,75.952h-18.04v-2.255h18.04V75.952z M48.883,64.68h2.255v2.255c-2.255,0,0,0-2.255,0V64.68z M48.883,73.7h2.255
	v2.255c-2.255,0,0,0-2.255,0V73.7z M48.883,69.19h2.255v2.255c-2.255,0,0,0-2.255,0V69.19z"/></svg>