<?xml version="1.0" encoding="utf-8"?>
<!-- Generator: Adobe Illustrator 26.0.1, SVG Export Plug-In . SVG Version: 6.00 Build 0)  -->
<svg version="1.1" id="Layer_1" xmlns="http://www.w3.org/2000/svg" xmlns:xlink="http://www.w3.org/1999/xlink" x="0px" y="0px"
	 viewBox="0 0 98 98" style="enable-background:new 0 0 98 98;" xml:space="preserve">
<style type="text/css">
	.st0{fill:#CCF3DC;}
	.st1{fill:url(#Rectangle_16735_00000089566821880479422040000017157456167969750160_);}
	.st2{fill:#FFFFFF;}
</style>
<g id="Group_77339" transform="translate(-533 -1717)">
	<path id="Rectangle_16734" class="st0" d="M543,1717h78c5.5,0,10,4.5,10,10v78c0,5.5-4.5,10-10,10h-78c-5.5,0-10-4.5-10-10v-78
		C533,1721.5,537.5,1717,543,1717z"/>
	
		<linearGradient id="Rectangle_16735_00000168816696045006336550000012259651194756784288_" gradientUnits="userSpaceOnUse" x1="381.3333" y1="1969.1666" x2="381.3333" y2="1968.1666" gradientTransform="matrix(84 0 0 -84 -31450 167134)">
		<stop  offset="0" style="stop-color:#A8E5E2"/>
		<stop  offset="1" style="stop-color:#11CDD8"/>
	</linearGradient>
	<path id="Rectangle_16735" style="fill:url(#Rectangle_16735_00000168816696045006336550000012259651194756784288_);" d="M550,1724
		h64c5.5,0,10,4.5,10,10v64c0,5.5-4.5,10-10,10h-64c-5.5,0-10-4.5-10-10v-64C540,1728.5,544.5,1724,550,1724z"/>
</g>
<g>
	<path class="st2" d="M65.6,16.5c0.7,0.6,1.3,1.3,2,1.9c0.2,0.2,0.4,0.3,0.3,0.4c-2,2.2-4,4.4-6.1,6.6c6.4,4.9,9.3,11.6,8.5,19.8
		c-14.2,0-28.5,0-42.8,0c-0.4-8.1,2.2-14.9,8.7-19.9c-2-2.2-4-4.3-6.1-6.5c0.7-0.7,1.5-1.5,2.2-2.4c0,0,0.1,0,0.1,0
		c1.1,1.1,2.2,2.1,3.3,3.2c1.1,1.1,2.2,2.2,3.3,3.3c0.4,0.4,0.6,0.4,1.1,0.2c2.4-1.2,5-1.8,7.7-2c3.4-0.2,6.7,0.4,9.8,1.9
		c0.7,0.3,1.1,0.2,1.5-0.3c2.1-2.1,4.2-4.2,6.3-6.3C65.5,16.5,65.6,16.5,65.6,16.5z M58.2,39.3c1.8,0,3.1-1.3,3.1-3
		c0-1.7-1.4-3-3.1-3c-1.7,0-3,1.4-3,3.1C55.2,38,56.5,39.3,58.2,39.3z M39.8,39.3c1.7,0,3-1.3,3-2.9c0-1.7-1.3-3.1-3-3.1
		c-1.6,0-3,1.4-3,3C36.8,37.9,38.2,39.2,39.8,39.3z"/>
	<path class="st2" d="M27.5,48.4c14.4,0,28.6,0,42.9,0c0,0.2,0,0.4,0,0.5c0,4.2,0,8.5-0.1,12.7c-0.1,3.8-1.3,7.3-3.4,10.4
		c-2,2.8-4.4,5.2-7.5,6.8c-4.2,2.2-8.7,3.1-13.4,2.4c-3.7-0.5-7.1-1.9-10.1-4.2c-4.5-3.4-7-7.9-8-13.4c-0.4-1.9-0.4-3.8-0.4-5.8
		c0-2.9,0-5.8,0-8.7C27.5,48.9,27.5,48.7,27.5,48.4z"/>
</g>
</svg>
