<?xml version="1.0" encoding="utf-8"?>
<!-- Generator: Adobe Illustrator 26.0.1, SVG Export Plug-In . SVG Version: 6.00 Build 0)  -->
<svg version="1.1" id="Layer_1" xmlns="http://www.w3.org/2000/svg" xmlns:xlink="http://www.w3.org/1999/xlink" x="0px" y="0px"
	 viewBox="0 0 98 98" style="enable-background:new 0 0 98 98;" xml:space="preserve">
<style type="text/css">
	.st0{fill:#BFFFCA;}
	.st1{fill:url(#Rectangle_16746_00000171677251812182481300000002635593750722818736_);}
	.st2{fill:#FFFFFF;}
</style>
<g id="Group_77336" transform="translate(-947 -2172)">
	<path id="Rectangle_16745" class="st0" d="M957,2172h78c5.5,0,10,4.5,10,10v78c0,5.5-4.5,10-10,10h-78c-5.5,0-10-4.5-10-10v-78
		C947,2176.5,951.5,2172,957,2172z"/>
	
		<linearGradient id="Rectangle_16746_00000101786753394681662570000008846280355932368779_" gradientUnits="userSpaceOnUse" x1="795.3333" y1="2424.1667" x2="795.3333" y2="2423.1667" gradientTransform="matrix(84 0 0 -84 -65812 205809)">
		<stop  offset="0" style="stop-color:#459400"/>
		<stop  offset="1" style="stop-color:#002A0D"/>
	</linearGradient>
	<path id="Rectangle_16746" style="fill:url(#Rectangle_16746_00000101786753394681662570000008846280355932368779_);" d="M964,2179
		h64c5.5,0,10,4.5,10,10v64c0,5.5-4.5,10-10,10h-64c-5.5,0-10-4.5-10-10v-64C954,2183.5,958.5,2179,964,2179z"/>
</g>
<g>
	<path class="st2" d="M42.7,73.3c-0.1,0.8-0.1,1.6-0.3,2.3c-0.5,2.2-2.8,3.8-4.8,3.8c-5.1,0-10.1,0.1-15.2,0c-2.9,0-4.9-2.3-4.9-5.2
		c0-8.7,0-17.4,0-26c0-3,2.1-5.2,5.2-5.2c0.3,0,0.6,0,1,0c0-0.3,0-0.5,0-0.8c0-6.1,0-12.1,0-18.2c0-0.6,0.1-1.1,0.2-1.7
		c0.5-2.1,2.8-3.6,4.7-3.7c0.2,0,0.3,0,0.5,0c15.2,0,30.5,0,45.7,0c2.6,0,4.6,1.4,5.2,3.7c0.1,0.5,0.2,1,0.2,1.5
		c0,10.7,0,21.5,0,32.2c0,3-2.2,5.2-5.3,5.2c-6,0-12,0-18,0c-0.2,0-0.5,0-0.8,0c0,2,0,4,0,6.1c0.2,0,0.4,0,0.6,0c3,0,5.9,0,8.9,0
		c1.5,0,2.7,1.1,3,2.6c0.2,1.4-0.6,2.8-2,3.3c-0.4,0.1-0.9,0.2-1.4,0.2c-7.3,0-14.6,0-21.9,0C43.2,73.3,43,73.3,42.7,73.3z
		 M37.5,42.8c0-0.4,0-0.7,0-1c0.1-1.2,0-2.5,0.2-3.7c0.8-3.9,4.1-6.3,7.8-6.4c4.4-0.1,8.8,0,13.2,0c0.4,0,0.8,0.1,1.1,0.1
		c3.3,0.4,6.6,3.4,6.9,6.9c0.2,2,0.1,4,0.1,6c0,1.9-1.3,3.2-3.2,3.2c-0.9,0-1.8,0.1-2.7,0c-0.5,0-1-0.2-1.4-0.5
		c-1.4-1-2.8-2.2-4.2-3.2c-0.3-0.2-0.7-0.3-1-0.3c-1.4,0-2.8-0.1-4.2,0c-0.4,0-1,0.2-1.3,0.5c-1,0.8-2,1.6-3,2.4
		c-0.8,0.6-1.6,1.4-2.9,1.2c0,0-0.1,0-0.1,0.1c0,2.3,0,4.6,0,7c10.5,0,20.9,0,31.4,0c0-10.1,0-20.2,0-30.3c-14.7,0-29.3,0-43.9,0
		c0,6.1,0,12.1,0,18.2C32.6,42.8,35,42.8,37.5,42.8z M19.6,69.2c7,0,13.9,0,20.8,0c0-6.1,0-12.1,0-18.2c-7,0-13.9,0-20.8,0
		C19.6,57.1,19.6,63.1,19.6,69.2z M42.7,59.1c0.2,0,0.3,0,0.5,0c10.6,0,21.2,0,31.8,0c2,0,3.3-1.3,3.3-3.3c0-10.6,0-21.2,0-31.7
		c0-2.2-1.2-3.4-3.5-3.4c-15.2,0-30.4,0-45.5,0c-2.1,0-3.3,1.2-3.3,3.4c0,6.1,0,12.2,0,18.3c0,0.2,0,0.4,0,0.7c0.7,0,1.3,0,2,0
		c0-0.3,0-0.5,0-0.8c0-6,0-12,0-18c0-1.2,0.3-1.5,1.5-1.5c15,0,30.1,0,45.1,0c1.3,0,1.6,0.3,1.6,1.6c0,10.5,0,20.9,0,31.4
		c0,1.3-0.3,1.6-1.5,1.6c-10.4,0-20.7,0-31.1,0c-0.2,0-0.5,0-0.8,0C42.7,57.7,42.7,58.4,42.7,59.1z M52.1,33.7
		C52.1,33.7,52.1,33.7,52.1,33.7c-2.1,0-4.3,0-6.4,0c-0.1,0-0.2,0-0.3,0c-2.5,0.1-5.5,2.2-5.8,5.1c-0.1,1.4-0.1,2.8-0.1,4.2
		c0,0.2,0.2,0.4,0.4,0.5c0.8,0.5,1.6,1,2,1.8c0.4,0.7,1.1,0.8,1.8,0.3c1.3-1,2.7-2,4-3.1c0.6-0.5,1.3-0.7,2.1-0.7
		c1.6,0,3.1-0.1,4.7,0c0.6,0,1.3,0.3,1.8,0.6c0.9,0.6,1.8,1.2,2.6,1.9c1.3,1.3,2.7,1.7,4.5,1.5c0.9-0.1,1.3-0.4,1.3-1.3
		c0-1.5,0-3,0-4.5c0-3.8-2.6-6.4-6.4-6.4C56.2,33.7,54.1,33.7,52.1,33.7z M19.6,71.3c0,1,0,1.9,0,2.8c0,1.9,1.3,3.2,3.2,3.2
		c4.9,0,9.8,0,14.7,0c1.5,0,2.8-1,3-2.5c0.1-1.2,0-2.3,0-3.5C33.5,71.3,26.6,71.3,19.6,71.3z M19.6,48.9c7,0,13.9,0,20.9,0
		c0-0.4,0-0.8,0-1.2c-0.1-1.5-1.4-2.8-2.9-2.8c-5,0-10,0-14.9,0c-1.5,0-2.7,1-3,2.5C19.6,47.9,19.6,48.4,19.6,48.9z M42.7,71.2
		c0.2,0,0.3,0,0.5,0c7.4,0,14.9,0,22.3,0c0.1,0,0.2,0,0.3,0c0.5-0.1,1-0.5,1-1c0-0.5-0.4-1-0.9-1c-0.1,0-0.3,0-0.4,0
		c-7.4,0-14.7,0-22.1,0c-0.2,0-0.4,0-0.6,0C42.7,69.9,42.7,70.5,42.7,71.2z M47.8,67.2c0-2,0-4,0-6c-1.7,0-3.4,0-5.1,0c0,2,0,4,0,6
		C44.4,67.2,46.1,67.2,47.8,67.2z M50,61.1c0,2,0,4,0,6c1.4,0,2.8,0,4.1,0c0-2,0-4,0-6C52.8,61.1,51.4,61.1,50,61.1z"/>
	<path class="st2" d="M36.6,57.7c-0.5,0.5-0.9,0.9-1.3,1.4c-3.5-2.7-7-2.7-10.4,0c-0.5-0.5-0.9-0.9-1.4-1.4
		C26.4,54.4,33.1,53.9,36.6,57.7z"/>
	<path class="st2" d="M26.5,60.5c1.7-1.8,4.9-2,7.3,0.1c-0.5,0.5-1,0.9-1.4,1.2c-0.9-0.3-1.6-0.6-2.4-0.7c-0.8-0.1-1.6,0.2-2.2,0.8
		C27.4,61.5,27,61,26.5,60.5z"/>
	<path class="st2" d="M30.1,65.1c-0.5-0.4-1-0.9-1.5-1.3c0.9-0.8,2-0.8,2.9-0.1C31,64.1,30.5,64.6,30.1,65.1z"/>
	<path class="st2" d="M43.7,39.8c-0.7,0-1.4,0-2,0c0-0.7,0-1.3,0-2c0.6,0,1.3,0,2,0c0-0.7,0-1.3,0-2c0.7,0,1.4,0,2.1,0
		c0,0.6,0,1.3,0,2c0.7,0,1.3,0,2,0c0,0.7,0,1.3,0,2c-0.6,0-1.3,0-2,0c0,0.7,0,1.3,0,2c-0.7,0-1.4,0-2.1,0
		C43.7,41.2,43.7,40.5,43.7,39.8z"/>
	<path class="st2" d="M48.9,35.8c0.7,0,1.4,0,2.1,0c0,0.7,0,1.3,0,1.9c-0.7,0-1.4,0-2.1,0C48.9,37.1,48.9,36.5,48.9,35.8z"/>
	<path class="st2" d="M58.4,39.8c-0.7,0-1.4,0-2.1,0c0-0.7,0-1.3,0-2c0.7,0,1.4,0,2.1,0c0,0,0,0,0,0C58.4,38.4,58.4,39.1,58.4,39.8
		L58.4,39.8z"/>
	<path class="st2" d="M60.4,37.8c0.7,0,1.4,0,2.1,0c0,0.7,0,1.3,0,2c-0.7,0-1.4,0-2.1,0l0,0C60.4,39.1,60.4,38.4,60.4,37.8
		L60.4,37.8z"/>
	<path class="st2" d="M53.2,37.7c0-0.7,0-1.3,0-1.9c0.6,0,1.3,0,2,0c0,0.6,0,1.3,0,1.9C54.5,37.7,53.9,37.7,53.2,37.7z"/>
	<path class="st2" d="M58.4,37.8c0-0.6,0-1.3,0-2c0.7,0,1.3,0,2,0c0,0.7,0,1.3,0,2c0,0,0,0,0,0C59.7,37.8,59,37.8,58.4,37.8
		L58.4,37.8z"/>
	<path class="st2" d="M60.4,39.8c0,0.6,0,1.3,0,2c-0.7,0-1.3,0-2,0c0-0.7,0-1.3,0-2c0,0,0,0,0,0C59,39.8,59.7,39.8,60.4,39.8
		L60.4,39.8z"/>
	<path class="st2" d="M31.1,75.3c-0.7,0-1.4,0-2.1,0c0-0.6,0-1.3,0-1.9c0.7,0,1.3,0,2.1,0C31.1,73.9,31.1,74.6,31.1,75.3z"/>
</g>
</svg>
