<?xml version="1.0" encoding="utf-8"?>
<!-- Generator: Adobe Illustrator 26.0.1, SVG Export Plug-In . SVG Version: 6.00 Build 0)  -->
<svg version="1.1" id="Layer_1" xmlns="http://www.w3.org/2000/svg" xmlns:xlink="http://www.w3.org/1999/xlink" x="0px" y="0px"
	 viewBox="0 0 98 98" style="enable-background:new 0 0 98 98;" xml:space="preserve">
<style type="text/css">
	.st0{fill:#FFB8B4;}
	.st1{fill:url(#Rectangle_16744_00000075863397519721490680000009042013121266552216_);}
	.st2{fill:#FCFCFC;}
</style>
<g id="Group_77335" transform="translate(-533 -2172)">
	<path id="Rectangle_16743" class="st0" d="M543,2172h78c5.5,0,10,4.5,10,10v78c0,5.5-4.5,10-10,10h-78c-5.5,0-10-4.5-10-10v-78
		C533,2176.5,537.5,2172,543,2172z"/>
	
		<linearGradient id="Rectangle_16744_00000053546601091464631580000013033530479855553939_" gradientUnits="userSpaceOnUse" x1="381.3333" y1="2424.1667" x2="381.3333" y2="2423.1667" gradientTransform="matrix(84 0 0 -84 -31450 205809)">
		<stop  offset="0" style="stop-color:#2A0300"/>
		<stop  offset="1" style="stop-color:#3F1100"/>
	</linearGradient>
	<path id="Rectangle_16744" style="fill:url(#Rectangle_16744_00000053546601091464631580000013033530479855553939_);" d="M550,2179
		h64c5.5,0,10,4.5,10,10v64c0,5.5-4.5,10-10,10h-64c-5.5,0-10-4.5-10-10v-64C540,2183.5,544.5,2179,550,2179z"/>
	<g id="platform_1_" transform="translate(550 2188)">
		<path id="Path_136314" class="st2" d="M31,22.9V36h2V22.9c2-0.4,3.5-1.9,3.9-3.9H41v-2h-4.1c-0.5-2.7-3.2-4.5-5.9-3.9
			c-2,0.4-3.5,1.9-3.9,3.9H23v2h4.1C27.5,21,29,22.5,31,22.9z"/>
		<path id="Path_136315" class="st2" d="M7,6V3H6C4.3,3,3,4.3,3,6v3h5C7.4,8.1,7,7.1,7,6z"/>
		<path id="Path_136316" class="st2" d="M6,33h12c1.7,0,3-1.3,3-3v-3H3v3C3,31.7,4.3,33,6,33z M17,29h2v2h-2V29z M9,29h6v2H9V29z
			 M5,29h2v2H5V29z"/>
		<path id="Path_136317" class="st2" d="M12,9c1.7,0,3-1.3,3-3V3H9v3C9,7.7,10.3,9,12,9z M12,5c0.6,0,1,0.4,1,1s-0.4,1-1,1
			s-1-0.4-1-1S11.4,5,12,5z"/>
		<path id="Path_136318" class="st2" d="M21,6c0-1.7-1.3-3-3-3h-1v3c0,1.1-0.4,2.1-1,3h5V6z"/>
		<path id="Path_136319" class="st2" d="M21,11H3v14h18V11z M9,24.4l-3.7-3.7l1.4-1.4L9,21.6l9.3-9.3l1.4,1.4L9,24.4z"/>
		<path id="Path_136320" class="st2" d="M61,6c0-1.7-1.3-3-3-3h-1v3c0,1.1-0.4,2.1-1,3h5V6z"/>
		<path id="Path_136321" class="st2" d="M47,6V3h-1c-1.7,0-3,1.3-3,3v3h5C47.4,8.1,47,7.1,47,6z"/>
		<path id="Path_136322" class="st2" d="M61,11H43v14h18V11z M49,24.4l-3.7-3.7l1.4-1.4l2.3,2.3l9.3-9.3l1.4,1.4L49,24.4z"/>
		<path id="Path_136323" class="st2" d="M52,9c1.7,0,3-1.3,3-3V3h-6v3C49,7.7,50.3,9,52,9z M52,5c0.6,0,1,0.4,1,1s-0.4,1-1,1
			s-1-0.4-1-1S51.4,5,52,5z"/>
		<path id="Path_136324" class="st2" d="M46,33h12c1.7,0,3-1.3,3-3v-3H43v3C43,31.7,44.3,33,46,33z M57,29h2v2h-2V29z M49,29h6v2h-6
			V29z M45,29h2v2h-2V29z"/>
		<path id="Path_136325" class="st2" d="M56,61v-2.3L53.6,58l-0.1-0.6c-0.6-2.6-1.6-5.1-3.1-7.4l-0.3-0.5l1.1-2.2l-4.6-4.6l-2.2,1.1
			L44,43.5c-2.3-1.5-4.8-2.5-7.4-3.1L36,40.4L35.3,38h-6.5L28,40.4l-0.6,0.1c-2.6,0.6-5.1,1.6-7.4,3.1l-0.5,0.3l-2.2-1.1l-4.6,4.6
			l1.1,2.2L13.5,50c-1.5,2.3-2.5,4.8-3.1,7.4L10.4,58L8,58.7V61H1v2h62v-2H56z M25,59v-2h2v2H25z M29,59v-2h2v2H29z M33,59v-2h2v2
			H33z M37,59v-2h2v2H37z M32,51c-5.7,0-10.4,4.3-11,10h-6c0.5-9.4,8.6-16.5,17.9-16c8.6,0.5,15.5,7.4,16,16h-6
			C42.4,55.3,37.7,51,32,51z"/>
	</g>
</g>
</svg>
