<svg id="Layer_1" data-name="Layer 1" xmlns="http://www.w3.org/2000/svg" xmlns:xlink="http://www.w3.org/1999/xlink" viewBox="0 0 408 408"><defs><style>.cls-1{fill:#cce8f9;}.cls-2{fill:url(#linear-gradient);}.cls-3{fill:#fff;}</style><linearGradient id="linear-gradient" x1="141.67" y1="270.41" x2="141.67" y2="266.25" gradientTransform="matrix(84, 0, 0, -84, -11696, 22744)" gradientUnits="userSpaceOnUse"><stop offset="0" stop-color="#163a4b"/><stop offset="1" stop-color="#00011d"/></linearGradient></defs><g id="Group_77338" data-name="Group 77338"><rect id="Rectangle_16732" data-name="Rectangle 16732" class="cls-1" width="408" height="408" rx="41.63"/><rect id="Rectangle_16733" data-name="Rectangle 16733" class="cls-2" x="29.14" y="29.14" width="349.71" height="349.71" rx="41.63"/></g><path class="cls-3" d="M307.27,120.53V287.47a5.53,5.53,0,0,0-.41,1.09c-1.18,8-5.83,13.71-12.14,18.17-3.92,2.76-8.54,3.72-13.37,3.72q-77.3,0-154.6,0a23.75,23.75,0,0,1-15.4-5.25,26.56,26.56,0,0,1-10.59-22q0-42.72,0-85.45c0-24.72-.11-49.44,0-74.16.07-10.37,5.09-18.14,14.05-23.2,2.45-1.39,5.37-1.93,8.07-2.86H285.08c.17.1.32.28.5.31a23.8,23.8,0,0,1,15.08,8.59,28.43,28.43,0,0,1,5.53,9.87C306.6,117.71,306.91,119.13,307.27,120.53Zm-196.1,83.36v56.84c0,8-.21,16,.1,24,.26,6.47,3.43,11.43,9.65,13.81a20.06,20.06,0,0,0,7.08,1.07q76,.09,152,.05l2,0a14.18,14.18,0,0,0,8.91-3.25c4.33-3.51,5.92-8.21,5.92-13.67q0-60.78,0-121.55c0-12.43.07-24.86,0-37.29-.08-9-6.62-15.48-15.59-15.49q-77.22,0-154.44,0a16.83,16.83,0,0,0-4.94.72c-6.71,2.09-10.66,7.88-10.67,15.56Q111.15,164.29,111.17,203.89Z"/><path class="cls-3" d="M152.4,203.88c0-10.74-.08-21.49,0-32.24.13-14.43,11.12-26.12,26.05-26a54,54,0,0,1,10.8.78,25.06,25.06,0,0,1,19.85,24.48q.49,32.94,0,65.89a25.78,25.78,0,0,1-26.25,25.72c-5.6,0-11.12-.1-16.26-2.8-9.11-4.77-13.76-12.53-14.13-22.53-.42-11.07-.1-22.16-.1-33.25Zm10.43.14c0,10.88-.09,21.76,0,32.63a14.79,14.79,0,0,0,12.34,14.57,46.8,46.8,0,0,0,8.22.37,15.15,15.15,0,0,0,15.32-15q.19-32.84,0-65.67c0-6.61-5.08-12.38-10.92-14.21a23.71,23.71,0,0,0-14.1,0c-5.64,1.74-10.87,7.73-10.89,14.24C162.81,182,162.83,193,162.83,204Z"/><path class="cls-3" d="M281.4,172.12H271.3c-.33-1.72-.54-3.37-1-5-1.48-5.47-8.29-11.8-15.24-11.19a23.32,23.32,0,0,1-3.83,0c-8.72-.7-16.65,8.13-16.25,16.1.19,3.69,0,7.39.05,11.09a15.74,15.74,0,0,0,11.14,14.71c3.1,1,6.16.85,9.27.91,8.77.17,15.94,3.61,21,10.75a24.63,24.63,0,0,1,4.9,14.44c0,5.64.43,11.38-.51,16.88C278.79,253.26,269.14,262,256,262.42c-5.86.18-11.67.11-17.08-2.73-9.11-4.78-13.4-12.56-14.31-22.51a11.93,11.93,0,0,1,.05-1.28h10.16c.27,1.54.39,3.07.8,4.53a15.29,15.29,0,0,0,14.63,11.15,48.16,48.16,0,0,0,8.42-.37A14.8,14.8,0,0,0,271,236.78a116,116,0,0,0-.43-15.27c-.73-6-7.9-12.78-15.29-12.33-5.11.31-10.22.09-15-2.09-9.4-4.3-14.57-11.86-15.4-21.91a72.61,72.61,0,0,1,.71-19.43c2.33-12.29,12.8-20.14,25.36-20.2,4.57,0,9.13-.12,13.51,1.57,10.25,3.95,15.46,11.72,17,22.3A20.05,20.05,0,0,1,281.4,172.12Z"/><path class="cls-3" d="M126.63,262.31V204.16h10.19v58.15Z"/><path class="cls-3" d="M136.92,182.66v10.48H126.69V182.66Z"/></svg>