<?xml version="1.0" encoding="utf-8"?>
<!-- Generator: Adobe Illustrator 26.0.1, SVG Export Plug-In . SVG Version: 6.00 Build 0)  -->
<svg version="1.1" id="Layer_1" xmlns="http://www.w3.org/2000/svg" xmlns:xlink="http://www.w3.org/1999/xlink" x="0px" y="0px"
	 viewBox="0 0 98 98" style="enable-background:new 0 0 98 98;" xml:space="preserve">
<style type="text/css">
	.st0{fill:#FFEFC4;}
	.st1{fill:url(#Rectangle_16742_00000144333762739862653310000004396923592231174287_);}
	.st2{fill:#FFFFFF;}
</style>
<g id="Group_77337" transform="translate(-114 -2172)">
	<path id="Rectangle_16741" class="st0" d="M124,2172h78c5.5,0,10,4.5,10,10v78c0,5.5-4.5,10-10,10h-78c-5.5,0-10-4.5-10-10v-78
		C114,2176.5,118.5,2172,124,2172z"/>
	
		<linearGradient id="Rectangle_16742_00000046299363290375546820000008803509275223238543_" gradientUnits="userSpaceOnUse" x1="-37.6667" y1="2424.1667" x2="-37.6667" y2="2423.1667" gradientTransform="matrix(84 0 0 -84 3327 205809)">
		<stop  offset="0" style="stop-color:#EFB849"/>
		<stop  offset="1" style="stop-color:#CCAEBF"/>
	</linearGradient>
	<path id="Rectangle_16742" style="fill:url(#Rectangle_16742_00000046299363290375546820000008803509275223238543_);" d="M131,2179
		h64c5.5,0,10,4.5,10,10v64c0,5.5-4.5,10-10,10h-64c-5.5,0-10-4.5-10-10v-64C121,2183.5,125.5,2179,131,2179z"/>
	<g>
		<path class="st2" d="M190.1,2230.7c-0.3,0.4-0.6,0.5-1.1,0.5c-2.7,0-5.5,0-8.2,0c-0.2,0-0.4,0-0.6,0c0,0.3,0,0.5,0,0.7
			c0,3.4,0,6.8,0,10.3c0,1.9-1,3.2-2.7,3.6c-0.3,0.1-0.6,0.1-0.8,0.1c-3.3,0-6.7,0-10,0c-0.1,0-0.2,0-0.3,0
			c-0.4-0.1-0.6-0.3-0.7-0.7c0-0.4,0.1-0.7,0.6-0.8c0.2-0.1,0.4-0.1,0.6-0.1c3.2,0,6.4,0,9.6,0c1.5,0,2.2-0.7,2.2-2.2
			c0-1.1,0-2.3,0-3.4c0,0,0-0.1-0.1-0.2c-9.1,0-18.3,0-27.5,0c0,0.3,0,0.6,0,0.9c0,1,0,1.9,0,2.9c0,1.2,0.8,1.9,2,1.9
			c3.3,0,6.5,0,9.8,0c0.2,0,0.3,0,0.5,0c0.5,0.1,0.8,0.4,0.8,0.8c0,0.4-0.3,0.8-0.8,0.8c-3.5,0-7,0-10.6,0c-1.7,0-3.1-1.5-3.2-3.2
			c0-2,0-4,0-6c0-2.9,0-5.8,0-8.7c0-0.3-0.1-0.6-0.4-0.7c-1-0.6-1.7-1.4-2.3-2.5c-2.4-4.2-4.8-8.4-7.3-12.6
			c-0.2-0.3-0.4-0.4-0.8-0.4c-1,0-1.8-0.4-2.4-1.3c-0.5-0.9-0.5-1.8,0.1-2.7c0.2-0.3,0.2-0.5,0.1-0.8c-0.8-2.1,0-4.5,2-5.6
			c2-1.1,4.4-0.7,5.8,1.1c0.2,0.2,0.4,0.3,0.7,0.3c1.1-0.1,1.9,0.4,2.4,1.3c0.5,0.9,0.5,1.9-0.1,2.8c-0.1,0.1-0.1,0.4-0.1,0.5
			c0.7,1.2,1.4,2.4,2.2,3.5c0-0.2,0-0.4,0-0.5c0-3.5,0-7.1,0-10.6c0-1.7,1.1-3.1,2.7-3.4c0.3-0.1,0.6-0.1,0.9-0.1
			c7.8,0,15.6,0,23.4,0c2.2,0,3.7,1.4,3.7,3.7c0,4,0,8,0,11.9c0,0.2,0,0.4,0,0.7c0.2,0,0.4,0,0.6,0c2.7,0,5.5,0,8.2,0
			c0.5,0,0.9,0.1,1.1,0.5c0,0.2,0,0.4,0,0.5c-0.2,0.4-0.6,0.6-1.1,0.5c-2.7,0-5.5,0-8.2,0c-0.2,0-0.4,0-0.6,0c0,5.3,0,10.4,0,15.6
			c0.2,0,0.4,0,0.6,0c2.7,0,5.5,0,8.2,0c0.5,0,0.9,0.1,1.1,0.5C190.1,2230.4,190.1,2230.5,190.1,2230.7z M178.5,2212.5
			c0-0.2,0-0.3,0-0.4c0-4.1,0-8.2,0-12.4c0-1.3-0.8-2-2-2c-7.8,0-15.6,0-23.5,0c-1.3,0-2.1,0.7-2.1,2.1c0,4.5,0,9.1,0,13.6
			c0,0.3,0.1,0.6,0.2,0.8c1,1.8,2,3.6,3.1,5.4c0.8,1.3,1.5,2.7,1.4,4.3c0,0.1,0,0.1,0,0.2c0.1,1.5,0.3,3,0.4,4.5
			c0.1,0.7-0.2,1.3-0.9,1.7c-0.6,0.4-1.3,0.3-1.9-0.1c-0.3-0.2-0.6-0.4-0.9-0.6c-0.4-0.3-0.9-0.6-1.4-0.9c0,2.8,0,5.6,0,8.3
			c9.2,0,18.3,0,27.5,0c0-1.9,0-3.8,0-5.6c-0.2,0-0.4,0-0.6,0c-1.6,0-3.2,0-4.8,0c-0.7,0-1-0.3-1-0.8c0-0.5,0.4-0.8,1-0.8
			c1.2,0,2.4,0,3.5,0c0.6,0,1.3,0,1.9,0c0-5.2,0-10.4,0-15.6c-0.2,0-0.3,0-0.4,0c-1.7,0-3.4,0-5.1,0c-0.6,0-0.9-0.3-0.9-0.8
			c0-0.5,0.4-0.8,0.9-0.8c0.2,0,0.4,0,0.5,0C175.1,2212.5,176.8,2212.5,178.5,2212.5z M149.7,2222.4c-0.1-0.1-0.1-0.3-0.3-0.5
			c-1.3-2.2-2.5-4.4-3.8-6.5c-0.1-0.2-0.2-0.3-0.2-0.5c-0.2-0.4,0-0.7,0.3-1c0.4-0.2,0.7-0.1,1,0.2c0.1,0.1,0.2,0.3,0.3,0.4
			c1.3,2.2,2.6,4.4,3.8,6.6c0.1,0.2,0.2,0.3,0.2,0.4c0.7-0.4,1.3-0.7,1.9-1.1c-2.4-4.1-4.8-8.3-7.3-12.6c-0.7,0.4-1.3,0.7-1.9,1.1
			c0.5,0.8,0.9,1.6,1.3,2.3c0.3,0.5,0.1,1.1-0.4,1.2c-0.4,0.1-0.7-0.1-1-0.5c-0.4-0.8-0.9-1.5-1.3-2.3c-0.7,0.4-1.3,0.7-1.9,1.1
			c2.5,4.2,4.9,8.5,7.2,12.5C148.5,2223.1,149.1,2222.8,149.7,2222.4z M138.6,2210.1c0.1,0,0.3-0.1,0.5-0.2c2.1-1.2,4.3-2.5,6.4-3.7
			c0.2-0.1,0.4-0.4,0.5-0.6c0.2-0.4,0-0.8-0.3-1.1c-0.4-0.3-0.8-0.3-1.2,0c-1.4,0.8-2.9,1.7-4.3,2.5c-0.7,0.4-1.4,0.8-2.1,1.2
			c-0.4,0.3-0.6,0.7-0.5,1.2C137.7,2209.8,138.1,2210,138.6,2210.1z M154.2,2225.7c-0.1-1.1-0.1-2-0.2-2.9c0-0.2-0.1-0.4-0.2-0.4
			c-0.6-0.3-1.1-0.1-1.4,0.5c-0.1,0.2-0.1,0.5-0.2,0.7c-0.1,0.9-0.5,1.1-1.4,0.8c-0.3-0.1-0.7-0.2-1.1-0.2c-0.5,0-0.6,0.4-0.7,0.7
			c-0.1,0.3,0.1,0.5,0.3,0.6c0.7,0.5,1.4,1,2.2,1.5c0.1,0.1,0.4,0.1,0.5,0c0.6-0.3,1.3-0.7,1.9-1.1
			C154.1,2225.9,154.2,2225.7,154.2,2225.7z M143.1,2203.5c-0.8-1.2-2.5-1.6-3.8-0.8c-1.3,0.7-1.9,2.4-1.3,3.8
			C139.7,2205.4,141.4,2204.4,143.1,2203.5z M154.3,2228.9c0,0,0.1-0.1,0.1-0.1c0-0.4-0.1-0.8-0.1-1.2c-0.4,0.2-0.7,0.4-1.1,0.6
			C153.7,2228.5,154,2228.7,154.3,2228.9z"/>
		<path class="st2" d="M190.1,2210.7c-0.3,0.4-0.6,0.5-1.1,0.5c-1.5,0-3.1,0-4.6,0c-0.7,0-1-0.3-1-0.8c0-0.5,0.4-0.8,1-0.8
			c1.5,0,3.1,0,4.6,0c0.5,0,0.8,0.1,1.1,0.5C190.1,2210.4,190.1,2210.6,190.1,2210.7z"/>
		<path class="st2" d="M190.1,2208c-0.3,0.4-0.7,0.5-1.1,0.5c-1.5,0-3,0-4.5,0c-0.1,0-0.3,0-0.4,0c-0.4-0.1-0.7-0.4-0.7-0.8
			c0-0.4,0.3-0.7,0.8-0.8c1,0,2,0,3.1,0c0.6,0,1.2,0,1.8,0c0.5,0,0.8,0.1,1,0.6C190.1,2207.6,190.1,2207.8,190.1,2208z"/>
		<path class="st2" d="M190.1,2225.2c-0.3,0.4-0.7,0.5-1.2,0.5c-1.4,0-2.9,0-4.3,0c-0.2,0-0.3,0-0.5,0c-0.5-0.1-0.7-0.3-0.7-0.8
			c0-0.4,0.3-0.7,0.7-0.8c0.4,0,0.8,0,1.2,0c1.2,0,2.5,0,3.7,0c0.5,0,0.9,0.1,1.1,0.5C190.1,2224.8,190.1,2225,190.1,2225.2z"/>
		<path class="st2" d="M190.1,2228c-0.3,0.4-0.7,0.5-1.1,0.5c-1.5,0-3,0-4.5,0c-0.2,0-0.6,0-0.7-0.2c-0.2-0.2-0.3-0.6-0.3-0.9
			c0-0.4,0.4-0.6,0.8-0.6c1.1,0,2.2,0,3.3,0c0.5,0,1,0,1.5,0c0.5,0,0.8,0.1,1,0.6C190.1,2227.6,190.1,2227.8,190.1,2228z"/>
		<path class="st2" d="M166.9,2241.4c0,1.2-1,2.2-2.3,2.2c-1.2,0-2.2-1-2.2-2.2c0-1.2,1-2.2,2.3-2.2
			C166,2239.2,166.9,2240.2,166.9,2241.4z M165.3,2241.4c0-0.4-0.2-0.6-0.6-0.6c-0.4,0-0.6,0.2-0.7,0.6c0,0.4,0.3,0.7,0.6,0.7
			C165.1,2242,165.3,2241.8,165.3,2241.4z"/>
		<path class="st2" d="M158.7,2212.4c0-3.4,2.7-6,6-6c3.3,0,5.9,2.8,5.9,6c0,3.3-2.7,6-6.1,5.9
			C161.4,2218.3,158.7,2215.6,158.7,2212.4z M167.7,2215.6c1.8-1.7,1.9-4.6,0.1-6.3c-1.8-1.8-4.7-1.6-6.4,0.3
			c-1.6,1.8-1.4,4.7,0.3,6.1C163.7,2213.8,166,2214.1,167.7,2215.6z M166.2,2216.5c-0.7-0.8-2.6-0.7-3,0
			C164.2,2216.9,165.2,2216.9,166.2,2216.5z"/>
		<path class="st2" d="M168.5,2231.5c0-0.6,0-1.2,0-1.8c-0.2,0-0.3,0-0.5,0c-2.2,0-4.5,0-6.7,0c-0.2,0-0.5,0.1-0.6,0.2
			c-0.3,0.2-0.6,0.4-0.9,0.1c-0.2-0.2-0.4-0.5-0.4-0.8c0-0.5,0.4-0.9,0.9-1c0.2,0,0.4-0.1,0.6-0.1c2.6,0,5.2,0,7.8,0
			c1,0,1.5,0.5,1.5,1.5c0,0.8,0,1.5,0,2.3c0,0.8-0.5,1.3-1.3,1.3c-4.6,0-9.3,0-13.9,0c-0.6,0-0.9-0.3-0.9-0.8c0-0.5,0.4-0.8,1-0.8
			c3.4,0,6.8,0,10.1,0C166.3,2231.5,167.4,2231.5,168.5,2231.5z"/>
		<path class="st2" d="M164.8,2220.7c1.3,0,2.6,0,3.9,0c1,0,1.4,0.5,1.5,1.5c0,0.8,0,1.5,0,2.3c0,0.8-0.5,1.3-1.3,1.3
			c-2.7,0-5.4,0-8.1,0c-0.8,0-1.3-0.5-1.4-1.4c0-0.8,0-1.6,0-2.4c0-0.8,0.5-1.3,1.3-1.3C162,2220.7,163.4,2220.7,164.8,2220.7z
			 M168.5,2222.3c-2.6,0-5.1,0-7.6,0c0,0.6,0,1.2,0,1.8c2.5,0,5,0,7.6,0C168.5,2223.5,168.5,2222.9,168.5,2222.3z"/>
		<path class="st2" d="M164.7,2201.2c-0.4,0-0.8,0-1.2,0c-0.5,0-0.9-0.3-0.9-0.8c0-0.5,0.3-0.8,0.9-0.8c0.8,0,1.6,0,2.4,0
			c0.5,0,0.9,0.3,0.9,0.8c0,0.4-0.4,0.8-0.9,0.8c0,0-0.1,0-0.1,0C165.4,2201.2,165.1,2201.2,164.7,2201.2z"/>
		<path class="st2" d="M164.7,2214c-1.4,0-2.5-1.1-2.5-2.5c0-1.4,1.1-2.5,2.5-2.5c1.4,0,2.5,1.1,2.5,2.5
			C167.2,2212.9,166.1,2214,164.7,2214z M164.7,2210.6c-0.5,0-0.9,0.4-0.9,0.9c0,0.5,0.4,0.9,0.9,0.9c0.5,0,0.9-0.4,0.9-0.9
			C165.6,2211.1,165.2,2210.6,164.7,2210.6z"/>
	</g>
</g>
</svg>
