<?xml version="1.0" encoding="utf-8"?>
<!-- Generator: Adobe Illustrator 26.0.1, SVG Export Plug-In . SVG Version: 6.00 Build 0)  -->
<svg version="1.1" id="Layer_1" xmlns="http://www.w3.org/2000/svg" xmlns:xlink="http://www.w3.org/1999/xlink" x="0px" y="0px"
	 viewBox="0 0 98 98" style="enable-background:new 0 0 98 98;" xml:space="preserve">
<style type="text/css">
	.st0{fill:#FBD7FB;}
	.st1{fill:url(#Rectangle_16737_00000059287216927125469630000016181512910454111142_);}
	.st2{fill:#FFFFFF;}
</style>
<g id="Group_77340" transform="translate(-947 -1717)">
	<path id="Rectangle_16736" class="st0" d="M957,1717h78c5.5,0,10,4.5,10,10v78c0,5.5-4.5,10-10,10h-78c-5.5,0-10-4.5-10-10v-78
		C947,1721.5,951.5,1717,957,1717z"/>
	
		<linearGradient id="Rectangle_16737_00000110435575349646095840000006419388640698375869_" gradientUnits="userSpaceOnUse" x1="795.3333" y1="1969.1666" x2="795.3333" y2="1968.1666" gradientTransform="matrix(84 0 0 -84 -65812 167134)">
		<stop  offset="0" style="stop-color:#FBA1FA"/>
		<stop  offset="1" style="stop-color:#AF24FF"/>
	</linearGradient>
	<path id="Rectangle_16737" style="fill:url(#Rectangle_16737_00000110435575349646095840000006419388640698375869_);" d="M964,1724
		h64c5.5,0,10,4.5,10,10v64c0,5.5-4.5,10-10,10h-64c-5.5,0-10-4.5-10-10v-64C954,1728.5,958.5,1724,964,1724z"/>
	<g>
		<path class="st2" d="M1005,1781c0,0.8,0,1.5,0,2.2c1.2,0.2,2.3,0.4,3.4,0.7c0.9,0.2,1.7,0.5,2.5,0.9c0.8,0.3,1.2,1,1.2,1.9
			c-0.1,0.9-0.1,1.8,0,2.8c0.1,0.9-0.3,1.6-1.1,1.9c-1.2,0.5-2.3,0.9-3.5,1.2c-4.6,0.9-9.3,1-14.1,0.9c-3.1-0.1-6.1-0.3-9.1-1
			c-1-0.2-1.9-0.6-2.9-1c-0.9-0.4-1.3-1-1.2-2.1c0.1-0.9,0-1.8,0-2.8c0-0.8,0.3-1.3,1-1.7c1.2-0.7,2.4-1,3.7-1.2
			c0.8-0.2,1.6-0.3,2.4-0.4c0-0.7,0-1.5,0-2.3c-0.2,0-0.4,0-0.6,0c-4.4,0-8.8,0-13.2,0c-2.9,0-4.7-1.9-4.7-4.7c0-9.2,0-18.3,0-27.5
			c0-2.6,1-4,3.5-4.9c0-0.8,0-1.7,0-2.5c0-1.8,1.1-2.9,2.9-2.9c7.5,0,15.1,0,22.6,0c1.8,0,2.9,1.1,2.9,2.9c0,0.8,0,1.5,0,2.4
			c0.2,0,0.4,0,0.7,0c5.9,0,11.7,0,17.6,0c2.9,0,4.8,1.8,4.8,4.8c0,9.2,0,18.5,0,27.7c0,2.9-1.9,4.8-4.8,4.8c-4.4,0-8.8,0-13.2,0
			C1005.4,1781,1005.2,1781,1005,1781z M1000.5,1745.6c0,0.3,0,0.5,0,0.7c0,4.7,0,9.3,0,14c0,1.9-1.1,3-3,3c-7.5,0-14.9,0-22.4,0
			c-1.9,0-3-1.1-3-3c0-4.6,0-9.3,0-13.9c0-0.2,0-0.4,0-0.6c-1.2,0.5-1.8,1.4-1.8,2.6c0,7.7,0,15.5,0,23.2c0,0.2,0,0.4,0,0.5
			c17.2,0,34.3,0,51.4,0c0-0.2,0-0.4,0-0.6c0-7.6,0-15.3,0-22.9c0-2-1-3-3-3c-5.9,0-11.7,0-17.6,0
			C1001,1745.6,1000.8,1745.6,1000.5,1745.6z M986.3,1740.2c-3.7,0-7.5,0-11.2,0c-0.9,0-1.2,0.3-1.2,1.2c0,6.3,0,12.6,0,18.8
			c0,0.9,0.3,1.2,1.2,1.2c7.5,0,14.9,0,22.4,0c0.9,0,1.2-0.3,1.2-1.2c0-6.3,0-12.6,0-18.8c0-0.9-0.3-1.2-1.2-1.2
			C993.8,1740.2,990,1740.2,986.3,1740.2z M1021.8,1774c-17.2,0-34.3,0-51.4,0c0,0.8,0,1.5,0,2.2c0,2.1,1,3.1,3.1,3.1
			c15.1,0,30.1,0,45.2,0c0.2,0,0.4,0,0.6,0c1.3-0.1,2.4-1.1,2.5-2.5C1021.8,1775.8,1021.8,1774.9,1021.8,1774z M1003.1,1784.5
			c0-1.2,0-2.3,0-3.5c-4.7,0-9.4,0-14.1,0c0,1.2,0,2.3,0,3.5C993.7,1784.5,998.4,1784.5,1003.1,1784.5z M1010.2,1788.2
			c-4.7,1.5-9.4,1.6-14.2,1.6c-4.8,0-9.5-0.2-14.2-1.6c0,1.8-0.4,1.7,1.5,2.1c2.2,0.5,4.4,0.8,6.6,1c4,0.4,8,0.3,12,0
			c2.3-0.2,4.7-0.5,6.9-1.1c1.2-0.4,1.2-0.4,1.2-1.7C1010.2,1788.5,1010.2,1788.4,1010.2,1788.2z M1004.9,1786.3c-6,0-11.8,0-17.8,0
			c0-0.4,0-0.8,0-1.2c-1.7,0.3-3.4,0.5-5.1,1.2c0.1,0.1,0.2,0.1,0.3,0.2c0.3,0.1,0.5,0.2,0.8,0.3c2.2,0.7,4.5,0.9,6.8,1.1
			c4.4,0.3,8.9,0.3,13.3-0.1c2-0.2,4-0.5,6-1.1c0.2-0.1,0.4-0.2,0.8-0.3c-1.7-0.7-3.4-1-5.1-1.2
			C1004.9,1785.5,1004.9,1785.9,1004.9,1786.3z"/>
		<path class="st2" d="M1013.5,1752.7c0.1,0.4,0.3,0.8,0.4,1.2c0.1,0.3,0.3,0.4,0.6,0.3c0.4-0.2,0.8-0.5,1.2-0.4
			c0.3,0.1,0.6,0.5,0.9,0.8c0.7,0.7,1.4,1.4,2.1,2.1c0.2,0.2,0.3,0.4,0.1,0.7c-0.6,1.3-0.8,1.1,0.7,1.6c0.1,0,0.2,0.1,0.4,0.2
			c0,1.5,0,3,0,4.5c0,0.1-0.2,0.3-0.3,0.4c-1.3,0.5-1.3,0.5-0.8,1.7c0.1,0.1,0,0.4-0.1,0.6c-0.9,1-1.9,1.9-2.9,2.9
			c-0.2,0.2-0.4,0.2-0.6,0.1c-1.2-0.6-1.2-0.6-1.7,0.7c0,0.1-0.1,0.2-0.1,0.3c-1.6,0-3.2,0-4.8,0c-0.1-0.4-0.3-0.8-0.4-1.2
			c-0.1-0.3-0.3-0.4-0.6-0.2c-0.4,0.2-0.7,0.4-1,0.5c-1.1-1.2-2.3-2.3-3.4-3.5c0.1-0.3,0.3-0.6,0.5-1c0.2-0.3,0.1-0.5-0.2-0.6
			c0,0,0,0-0.1,0c-0.4-0.1-0.9-0.2-1.1-0.5c-0.2-0.3-0.1-0.8-0.1-1.2c0-1.2,0-2.3,0-3.5c0.4-0.1,0.8-0.3,1.2-0.4
			c0.3-0.1,0.4-0.3,0.3-0.6c-0.2-0.4-0.5-0.8-0.5-1.1c0.1-0.4,0.6-0.7,0.9-1c0.7-0.7,1.4-1.4,2.1-2.1c0.2-0.2,0.4-0.3,0.7-0.1
			c1.2,0.6,1.2,0.6,1.6-0.7c0.1-0.2,0.1-0.4,0.5-0.4C1010.5,1752.7,1012,1752.7,1013.5,1752.7z M1007.9,1766.9
			c0.6,0.2,1.1,0.5,1.7,0.7c0.1,0,0.1,0.1,0.1,0.2c0.1,0.8,0.6,0.9,1.3,0.8c0.3,0,0.5,0,0.8,0c0.4,0,0.6-0.1,0.6-0.4
			c0.1-0.5,0.3-0.7,0.8-0.8c0.2,0,0.3-0.1,0.5-0.2c0.4-0.3,0.9-0.3,1.3,0c0.1,0.1,0.4,0,0.6-0.1c0.4-0.3,0.8-0.7,1.1-1.1
			c0.1-0.1,0.2-0.4,0.1-0.5c-0.3-0.5-0.3-1,0-1.5c0.1-0.2,0.2-0.5,0.3-0.7c0.1-0.1,0.2-0.3,0.3-0.3c0.8-0.1,0.9-0.6,0.8-1.3
			c0-0.3,0-0.7,0-1c0-0.1-0.2-0.4-0.3-0.4c-0.7-0.1-0.9-0.5-1.1-1.1c-0.1-0.2-0.2-0.4-0.3-0.6c0-0.1-0.1-0.4,0-0.5
			c0.5-0.6,0.2-1.1-0.3-1.5c-0.2-0.2-0.4-0.4-0.6-0.6c-0.2-0.3-0.5-0.3-0.8-0.1c-0.4,0.3-0.8,0.3-1.2,0c-0.1-0.1-0.3-0.2-0.5-0.2
			c-0.5-0.1-0.8-0.4-0.8-0.9c0-0.3-0.2-0.4-0.5-0.4c-0.5,0-1,0-1.5,0c-0.1,0-0.4,0.2-0.4,0.3c-0.1,0.6-0.5,0.9-1.1,1
			c-0.2,0.1-0.4,0.2-0.7,0.3c-0.2,0-0.4,0.1-0.5,0c-0.6-0.5-1-0.2-1.4,0.3c-0.2,0.3-0.5,0.5-0.7,0.8c-0.1,0.1-0.2,0.4-0.1,0.5
			c0.4,0.5,0.3,1,0,1.6c-0.1,0.2-0.2,0.5-0.3,0.7c-0.1,0.1-0.2,0.3-0.3,0.3c-0.9,0.1-0.9,0.7-0.8,1.3c0,0.3,0,0.6,0,0.9
			c0,0.2,0.2,0.4,0.3,0.4c0.6,0.1,0.9,0.5,1,1.1c0.1,0.2,0.2,0.5,0.3,0.7c0,0.1,0.1,0.4,0,0.5c-0.5,0.6-0.2,1.1,0.3,1.5
			c0.1,0.1,0.3,0.2,0.4,0.4c0.4,0.5,0.8,0.6,1.3,0.2C1007.7,1766.9,1007.8,1766.9,1007.9,1766.9z"/>
		<path class="st2" d="M979.2,1766.8c0-0.6,0-1.1,0-1.7c5.9,0,11.8,0,17.7,0c0,0.6,0,1.1,0,1.7
			C991.1,1766.8,985.2,1766.8,979.2,1766.8z"/>
		<path class="st2" d="M975.7,1770.3c0-0.6,0-1.1,0-1.7c5.9,0,11.8,0,17.7,0c0,0.6,0,1.1,0,1.7
			C987.5,1770.3,981.6,1770.3,975.7,1770.3z"/>
		<path class="st2" d="M975.7,1765.1c0.6,0,1.1,0,1.7,0c0,0.6,0,1.1,0,1.7c-0.5,0-1.1,0-1.7,0
			C975.7,1766.2,975.7,1765.7,975.7,1765.1z"/>
		<path class="st2" d="M996.9,1768.6c0,0.6,0,1.1,0,1.7c-0.6,0-1.1,0-1.7,0c0-0.5,0-1.1,0-1.7
			C995.8,1768.6,996.3,1768.6,996.9,1768.6z"/>
		<path class="st2" d="M977.7,1750.9c1.6,1.9,3.2,3.7,4.8,5.6c-0.4,0.4-0.9,0.7-1.3,1.2c-1.9-2.3-3.8-4.5-5.8-6.8
			c1.9-2.3,3.9-4.5,5.8-6.8c0.5,0.4,0.9,0.8,1.3,1.2C980.9,1747.1,979.4,1749,977.7,1750.9z"/>
		<path class="st2" d="M991.4,1744.1c2,2.3,3.9,4.5,5.8,6.8c-1.9,2.2-3.8,4.5-5.8,6.8c-0.5-0.4-0.9-0.8-1.3-1.2
			c1.6-1.9,3.2-3.7,4.8-5.6c-1.6-1.9-3.2-3.7-4.8-5.6C990.5,1744.9,990.9,1744.5,991.4,1744.1z"/>
		<path class="st2" d="M986.3,1758.1c-0.6-0.1-1.2-0.2-1.8-0.2c0.6-4.7,1.2-9.4,1.8-14.2c0.6,0.1,1.2,0.1,1.8,0.2
			C987.5,1748.6,986.9,1753.3,986.3,1758.1z"/>
		<path class="st2" d="M1012.9,1777.4c-0.6,0-1.1,0-1.7,0c0-0.6,0-1.1,0-1.7c0.6,0,1.1,0,1.7,0
			C1012.9,1776.3,1012.9,1776.8,1012.9,1777.4z"/>
		<path class="st2" d="M1016.4,1777.4c-0.6,0-1.1,0-1.7,0c0-0.6,0-1.1,0-1.7c0.6,0,1.1,0,1.7,0
			C1016.4,1776.3,1016.4,1776.8,1016.4,1777.4z"/>
		<path class="st2" d="M1019.9,1777.4c-0.6,0-1.1,0-1.7,0c0-0.6,0-1.1,0-1.7c0.5,0,1.1,0,1.7,0
			C1019.9,1776.3,1019.9,1776.9,1019.9,1777.4z"/>
		<path class="st2" d="M1006.7,1761.5c0-2.4,2-4.4,4.5-4.4c2.4,0,4.4,2,4.4,4.5c0,2.4-2,4.4-4.4,4.4
			C1008.7,1765.9,1006.7,1763.9,1006.7,1761.5z M1011.1,1758.9c-1.4,0-2.6,1.2-2.6,2.7c0,1.5,1.2,2.7,2.7,2.7c1.4,0,2.6-1.2,2.6-2.7
			C1013.8,1760,1012.6,1758.8,1011.1,1758.9z"/>
	</g>
</g>
</svg>
