<svg xmlns="http://www.w3.org/2000/svg" width="81.576" height="61.8" viewBox="0 0 81.576 61.8">
  <g id="Group_77324" data-name="Group 77324" transform="translate(-192.712 -5357)">
    <path id="Path_136222" data-name="Path 136222" d="M40.788,47.362C18.261,47.362,0,24.835,0,47.362a40.788,40.788,0,1,0,81.576,0C81.576,24.835,63.314,47.362,40.788,47.362Z" transform="translate(192.712 5330.65)" fill="#ffb07d"/>
    <g id="social-media" transform="translate(208 5357)">
      <g id="Group_77187" data-name="Group 77187" transform="translate(16.667 4.167)">
        <g id="Group_77186" data-name="Group 77186">
          <rect id="Rectangle_20216" data-name="Rectangle 20216" width="16" height="2" transform="translate(0.333 -0.166)"/>
        </g>
      </g>
      <g id="Group_77189" data-name="Group 77189" transform="translate(10.833 16.667)">
        <g id="Group_77188" data-name="Group 77188">
          <path id="Path_136227" data-name="Path 136227" d="M134.417,174.583a2.92,2.92,0,0,0-2.917-2.917h-1.667V160h-1.667v11.667h-2.083a2.912,2.912,0,0,0-2.035,5,2.882,2.882,0,0,0-.438,3.611,2.914,2.914,0,0,0-1.694,2.639,2.883,2.883,0,0,0,.293,1.25h-6.543a7.5,7.5,0,0,0-3.224-6.159,5.008,5.008,0,0,0,3.224-4.675.833.833,0,0,0-.833-.833h-6.667v-8.333H106.5V172.5A2.5,2.5,0,0,0,104,175v18.334h1.667V175a.834.834,0,0,1,.833-.833h7.394a3.339,3.339,0,0,1-3.228,2.5h-2.5a.833.833,0,0,0,0,1.667A5.84,5.84,0,0,1,114,184.167V185a.833.833,0,0,0,.833.833h4.876a2.883,2.883,0,0,0-.293,1.25A2.92,2.92,0,0,0,122.334,190v3.333H124V190h3.75a2.92,2.92,0,0,0,2.917-2.917,2.881,2.881,0,0,0-.3-1.262,2.894,2.894,0,0,0,2.355-4.433,2.9,2.9,0,0,0,.812-4.722A2.9,2.9,0,0,0,134.417,174.583Zm-6.667,13.75h-5.417a1.25,1.25,0,0,1,0-2.5h5.417a1.25,1.25,0,1,1,0,2.5Zm2.5-4.167h-5.417a1.25,1.25,0,1,1,0-2.5h5.417a1.25,1.25,0,1,1,0,2.5ZM131.5,180h-5.417a1.25,1.25,0,1,1,0-2.5H131.5a1.25,1.25,0,0,1,0,2.5Zm0-4.167h-5.417a1.25,1.25,0,0,1,0-2.5H131.5a1.25,1.25,0,0,1,0,2.5Z" transform="translate(-104 -160)"/>
        </g>
      </g>
      <g id="Group_77191" data-name="Group 77191" transform="translate(3.333 7.5)">
        <g id="Group_77190" data-name="Group 77190">
          <path id="Path_136228" data-name="Path 136228" d="M41.164,75.107a.833.833,0,0,0-.327-.6l-.868-.658a2.274,2.274,0,0,0-4.508.416,4.837,4.837,0,0,1-1.872-.756l-.291-.2A.833.833,0,0,0,32,74v.684a4.813,4.813,0,0,0,.864,2.767l-.623.631a.833.833,0,0,0,.592,1.419h4.038a3.155,3.155,0,0,0,3.121-2.8l.933-.944A.834.834,0,0,0,41.164,75.107Zm-2.577.641a.832.832,0,0,0-.241.586,1.489,1.489,0,0,1-1.475,1.5h-2.12a.835.835,0,0,0-.172-.919,3.187,3.187,0,0,1-.808-1.424A6.482,6.482,0,0,0,36.3,76a.833.833,0,0,0,.833-.833v-.875a.609.609,0,1,1,1.218,0,.834.834,0,0,0,.33.664l.4.3Z" transform="translate(-32 -72)"/>
        </g>
      </g>
      <g id="Group_77193" data-name="Group 77193" transform="translate(22.5 12.5)">
        <g id="Group_77192" data-name="Group 77192">
          <path id="Path_136229" data-name="Path 136229" d="M221,121.667V120h-2.5a.833.833,0,0,0-.833.833v2.5H216V125h1.667v3.333h1.667V125H221v-1.667h-1.667v-1.667Z" transform="translate(-216 -120)"/>
        </g>
      </g>
      <g id="Group_77195" data-name="Group 77195" transform="translate(17.5 9.167)">
        <g id="Group_77194" data-name="Group 77194">
          <path id="Path_136230" data-name="Path 136230" d="M180.5,88h-10a2.5,2.5,0,0,0-2.5,2.5v10a2.5,2.5,0,0,0,2.5,2.5h10a2.5,2.5,0,0,0,2.5-2.5v-10A2.5,2.5,0,0,0,180.5,88Zm.833,12.5a.834.834,0,0,1-.833.833h-10a.834.834,0,0,1-.833-.833v-10a.834.834,0,0,1,.833-.833h10a.834.834,0,0,1,.833.833Z" transform="translate(-168 -88)"/>
        </g>
      </g>
      <g id="Group_77197" data-name="Group 77197" transform="translate(0 4.167)">
        <g id="Group_77196" data-name="Group 77196">
          <path id="Path_136231" data-name="Path 136231" d="M12.5,40H2.5A2.5,2.5,0,0,0,0,42.5v10A2.5,2.5,0,0,0,2.5,55h10A2.5,2.5,0,0,0,15,52.5v-10A2.5,2.5,0,0,0,12.5,40Zm.833,12.5a.834.834,0,0,1-.833.833H2.5a.834.834,0,0,1-.833-.833v-10a.834.834,0,0,1,.833-.833h10a.834.834,0,0,1,.833.833Z" transform="translate(0 -40)"/>
        </g>
      </g>
      <g id="Group_77199" data-name="Group 77199" transform="translate(35)">
        <g id="Group_77198" data-name="Group 77198">
          <path id="Path_136232" data-name="Path 136232" d="M348.5,0h-10A2.5,2.5,0,0,0,336,2.5v10a2.5,2.5,0,0,0,2.5,2.5h10a2.5,2.5,0,0,0,2.5-2.5V2.5A2.5,2.5,0,0,0,348.5,0Zm.833,12.5a.834.834,0,0,1-.833.833h-10a.834.834,0,0,1-.833-.833V8.333h1.751a4.167,4.167,0,0,0,8.165,0h1.751ZM341,7.5a2.5,2.5,0,1,1,2.5,2.5A2.5,2.5,0,0,1,341,7.5Zm8.333-.833h-1.751a4.167,4.167,0,0,0-8.165,0h-1.751V2.5a.834.834,0,0,1,.833-.833h10a.834.834,0,0,1,.833.833Z" transform="translate(-336)"/>
        </g>
      </g>
      <g id="Group_77201" data-name="Group 77201" transform="translate(24.167 34.167)">
        <g id="Group_77200" data-name="Group 77200">
          <rect id="Rectangle_20217" data-name="Rectangle 20217" width="2" height="2" transform="translate(-0.167 -0.167)"/>
        </g>
      </g>
    </g>
  </g>
</svg>
