<svg xmlns="http://www.w3.org/2000/svg" width="81.576" height="67.8" viewBox="0 0 81.576 67.8">
  <g id="Group_77325" data-name="Group 77325" transform="translate(-417.712 -5351)">
    <path id="Path_129535" data-name="Path 129535" d="M40.788,47.362C18.261,47.362,0,24.835,0,47.362a40.788,40.788,0,1,0,81.576,0C81.576,24.835,63.314,47.362,40.788,47.362Z" transform="translate(417.712 5330.65)" fill="#d6a1d5"/>
    <g id="suitcase" transform="translate(434.567 5351)">
      <path id="Path_136233" data-name="Path 136233" d="M49.6,25.373H39.2V23.541A1.245,1.245,0,0,0,37.955,22.3h-8.4a1.245,1.245,0,0,0-1.243,1.243v1.832H26.95v-6.82a2.427,2.427,0,0,0-2.424-2.425H21.561V2.926a1.455,1.455,0,0,0-1.453-1.453H18.975v-.33A1.144,1.144,0,0,0,17.832,0H12.147A1.144,1.144,0,0,0,11,1.143v.33H9.871A1.455,1.455,0,0,0,8.418,2.926v13.2H4.568a2.427,2.427,0,0,0-2.425,2.425V26.1a.734.734,0,1,0,1.468,0V18.553a.958.958,0,0,1,.957-.956H24.525a.957.957,0,0,1,.956.956V44.189a.958.958,0,0,1-.956.956H4.568a.958.958,0,0,1-.957-.956V29.035a.734.734,0,1,0-1.468,0V44.189a2.427,2.427,0,0,0,2.425,2.425H6.06v2.651a.734.734,0,1,0,1.468,0V46.613h8.257v1.259A2.131,2.131,0,0,0,17.913,50H49.6a2.131,2.131,0,0,0,2.128-2.128V27.5A2.131,2.131,0,0,0,49.6,25.373ZM12.472,1.468h5.035V2.946H12.472ZM9.886,2.941H11v.33a1.144,1.144,0,0,0,1.143,1.143h5.685a1.144,1.144,0,0,0,1.143-1.143v-.33h1.118V16.129H9.886ZM44.3,26.841V48.428H42.829V26.841ZM26.95,44.189V26.841h6.8a.734.734,0,0,0,0-1.468H29.779V23.766H37.73v1.607H36.691a.734.734,0,0,0,0,1.468h4.67V48.532H23.033V46.613h1.493a2.427,2.427,0,0,0,2.424-2.424Zm-9.7,3.683V46.613h4.311v1.919H17.914A.661.661,0,0,1,17.253,47.872Zm33,0a.661.661,0,0,1-.66.66h-3.83V26.841H49.6a.661.661,0,0,1,.66.66Z"/>
      <path id="Path_136234" data-name="Path 136234" d="M274.716,390.009h5.424a1.648,1.648,0,0,0,1.646-1.646v-2.136a1.648,1.648,0,0,0-1.646-1.646h-5.424a1.648,1.648,0,0,0-1.646,1.646v2.136A1.648,1.648,0,0,0,274.716,390.009Zm-.178-3.782a.178.178,0,0,1,.178-.178h5.424a.178.178,0,0,1,.178.178v2.136a.178.178,0,0,1-.178.178h-5.424a.178.178,0,0,1-.178-.178Z" transform="translate(-244.41 -346.94)"/>
      <path id="Path_136235" data-name="Path 136235" d="M52.231,231.689V211.714a.734.734,0,1,0-1.468,0v19.975a.734.734,0,1,0,1.468,0Z" transform="translate(-43.861 -190.33)"/>
      <path id="Path_136236" data-name="Path 136236" d="M99.3,231.689V211.714a.734.734,0,1,0-1.468,0v19.975a.734.734,0,1,0,1.468,0Z" transform="translate(-86.326 -190.33)"/>
      <path id="Path_136237" data-name="Path 136237" d="M146.374,231.689V211.714a.734.734,0,1,0-1.468,0v19.975a.734.734,0,1,0,1.468,0Z" transform="translate(-128.79 -190.33)"/>
      <path id="Path_136238" data-name="Path 136238" d="M193.445,231.689V211.714a.734.734,0,1,0-1.468,0v19.975a.734.734,0,1,0,1.468,0Z" transform="translate(-171.254 -190.33)"/>
    </g>
  </g>
</svg>
