<svg xmlns="http://www.w3.org/2000/svg" data-name="Layer 1" viewBox="0 0 512 512"><path d="M229.874,215.447a73.752,73.752,0,0,0,73.668-73.669,7,7,0,0,0-7-7H236.874V75.109a7,7,0,0,0-7-7,73.669,73.669,0,1,0,0,147.338Zm-7-132.929v59.26a7,7,0,0,0,7,7h59.26a59.671,59.671,0,1,1-66.26-66.26ZM249.35,129.3h66.669a7,7,0,0,0,7-7A73.752,73.752,0,0,0,249.35,48.632a7,7,0,0,0-7,7V122.3A7,7,0,0,0,249.35,129.3Zm7-66.26a59.787,59.787,0,0,1,52.261,52.26H256.35Zm49.773,346.953a86.307,86.307,0,1,0-86.308-86.307A86.405,86.405,0,0,0,306.123,409.994Zm0-158.614a72.307,72.307,0,1,1-72.308,72.307A72.389,72.389,0,0,1,306.123,251.38ZM483.088,466.842h0L420.7,404.449a10.676,10.676,0,0,0-15.1,0l-4.406,4.407-12.782-12.781q3.125-3.546,5.94-7.354h29.54a32.3,32.3,0,0,0,32.265-32.266V97.927a32.3,32.3,0,0,0-32.265-32.265h-45.21V21.7A19.06,19.06,0,0,0,359.643,2.661H148.461a7,7,0,0,0-4.95,2.05L99.632,48.59a7,7,0,0,0-2.05,4.95V65.662H52.371A32.3,32.3,0,0,0,20.106,97.927v258.53a32.3,32.3,0,0,0,32.265,32.266H168.4v27.23h-5.882a17.561,17.561,0,1,0,0,35.122H313.748a17.537,17.537,0,0,0,17.292-20.591,109.447,109.447,0,0,0,47.472-24.507l12.781,12.781-4.3,4.3a10.691,10.691,0,0,0,0,15.1l62.391,62.39c5.754,5.756,12.609,8.807,19.462,8.806a23.041,23.041,0,0,0,22.252-17.068C493.444,483.547,490.522,474.276,483.088,466.842ZM210.468,323.688a95.655,95.655,0,1,1,95.655,95.654A95.764,95.764,0,0,1,210.468,323.688Zm168.214-82.14V101.428h41.709v227.15h-4.729c.072-1.622.115-3.251.115-4.89A109.416,109.416,0,0,0,378.682,241.548Zm45.21-161.886a18.285,18.285,0,0,1,18.265,18.265v258.53a18.286,18.286,0,0,1-18.265,18.266h-20.74a108.8,108.8,0,0,0,10.991-32.145h13.248a7,7,0,0,0,7-7V94.428a7,7,0,0,0-7-7H378.682V79.662ZM364.682,21.7V231.018a109.6,109.6,0,0,0-163.831,61.957H116.62a5.044,5.044,0,0,1-5.038-5.038V60.54h36.879a7,7,0,0,0,7-7V16.661H359.643A5.044,5.044,0,0,1,364.682,21.7Zm-168.1,306.879H55.872V101.428h41.71V287.937a19.059,19.059,0,0,0,19.038,19.038h81.12a109.915,109.915,0,0,0-1.272,16.713C196.468,325.327,196.511,326.956,196.582,328.578ZM121.481,46.54l19.98-19.98V46.54ZM34.106,356.457V97.927A18.286,18.286,0,0,1,52.371,79.662H97.582v7.766H48.872a7,7,0,0,0-7,7v241.15a7,7,0,0,0,7,7H198.1a108.807,108.807,0,0,0,10.993,32.145H52.371A18.287,18.287,0,0,1,34.106,356.457ZM182.4,388.723h35.5a110.53,110.53,0,0,0,29.034,27.23H182.4Zm134.91,44.791a3.564,3.564,0,0,1-3.56,3.561H162.516a3.561,3.561,0,1,1,0-7.122H279.035a110.138,110.138,0,0,0,38.194,2.83A3.537,3.537,0,0,1,317.308,433.514Zm160.274,55.14a9.042,9.042,0,0,1-6.379,6.379c-3.823,1.029-8.056-.535-11.913-4.393L399.25,430.6l13.9-13.9,60.039,60.04h0C477.047,480.6,478.607,484.83,477.582,488.654Z"/></svg>