<svg xmlns="http://www.w3.org/2000/svg" enable-background="new 0 0 66 66" viewBox="0 0 66 66"><path fill="none" stroke="#000" stroke-linecap="round" stroke-linejoin="round" stroke-miterlimit="10" stroke-width="2" d="M16.5 42.3c0 .9-.3 1.9-.8 3-.9 1.8-2.4 3.5-4.1 3.5s-3.2-1.7-4.1-3.5c-.5-1-.8-2.1-.8-3 0-2.4 2.2-4.3 4.9-4.3S16.5 39.9 16.5 42.3zM19.8 53.3l-1 8.3c0 .7-.5 1.3-1.1 1.4-5.2 1.3-7.1 1.3-12.3 0-.6-.2-1-.7-1.1-1.4l-1-8.3c-.1-1.4.7-2.8 2.8-3.3 0 0 .1 0 .1 0 .5-.1 1 .1 1.4.5 1 1.1 2.4 1.9 3.9 1.9s3-.9 3.9-1.9c.4-.4.9-.6 1.4-.5 0 0 .1 0 .1 0C19.2 50.5 19.9 51.8 19.8 53.3z"/><polyline fill="none" stroke="#000" stroke-linecap="round" stroke-linejoin="round" stroke-miterlimit="10" stroke-width="2" points="12.8 52.1 13.5 55 11.9 57.8 9.8 55 10.4 52.1"/><path fill="none" stroke="#000" stroke-linecap="round" stroke-linejoin="round" stroke-miterlimit="10" stroke-width="2" d="M59.2 42.3c0 .9-.3 1.9-.8 3-.9 1.8-2.4 3.5-4.1 3.5-1.7 0-3.2-1.7-4.1-3.5-.5-1-.8-2.1-.8-3 0-2.4 2.2-4.3 4.9-4.3C57.1 38 59.2 39.9 59.2 42.3zM62.6 53.3l-1 8.3c0 .7-.5 1.3-1.1 1.4-5.2 1.3-7.1 1.3-12.3 0-.6-.2-1-.7-1.1-1.4l-1-8.3c-.1-1.4.7-2.8 2.8-3.3 0 0 .1 0 .1 0 .5-.1 1 .1 1.4.5 1 1.1 2.4 1.9 3.9 1.9s3-.9 3.9-1.9c.4-.4.9-.6 1.4-.5 0 0 .1 0 .1 0C61.9 50.5 62.6 51.8 62.6 53.3z"/><polyline fill="none" stroke="#000" stroke-linecap="round" stroke-linejoin="round" stroke-miterlimit="10" stroke-width="2" points="55.6 52.1 56.2 55 54.6 57.8 52.5 55 53.2 52.1"/><path fill="none" stroke="#000" stroke-linecap="round" stroke-linejoin="round" stroke-miterlimit="10" stroke-width="2" d="M37.9 42.3c0 .9-.3 1.9-.8 3-.9 1.8-2.4 3.5-4.1 3.5-1.7 0-3.2-1.7-4.1-3.5-.5-1-.8-2.1-.8-3 0-2.4 2.2-4.3 4.9-4.3C35.7 38 37.9 39.9 37.9 42.3zM41.2 53.3l-1 8.3c0 .7-.5 1.3-1.1 1.4-5.2 1.3-7.1 1.3-12.3 0-.6-.2-1-.7-1.1-1.4l-1-8.3c-.1-1.4.7-2.8 2.8-3.3 0 0 .1 0 .1 0 .5-.1 1 .1 1.4.5 1 1.1 2.4 1.9 3.9 1.9 1.6 0 3-.9 3.9-1.9.4-.4.9-.6 1.4-.5 0 0 .1 0 .1 0C40.5 50.5 41.3 51.8 41.2 53.3z"/><polyline fill="none" stroke="#000" stroke-linecap="round" stroke-linejoin="round" stroke-miterlimit="10" stroke-width="2" points="34.2 52.1 34.8 55 33.2 57.8 31.2 55 31.8 52.1"/><path fill="none" stroke="#000" stroke-linecap="round" stroke-linejoin="round" stroke-miterlimit="10" stroke-width="2" d="M37.9 12.7c0 .9-.3 1.9-.8 3-.9 1.8-2.4 3.5-4.1 3.5-1.7 0-3.2-1.7-4.1-3.5-.5-1-.8-2.1-.8-3 0-2.4 2.2-4.3 4.9-4.3S37.9 10.3 37.9 12.7zM41.2 23.7l-.7 5.8c-2.2 1.3-4.8 2.1-7.5 2.1s-5.3-.8-7.5-2.1l-.7-5.8c-.1-1.4.7-2.8 2.8-3.3 0 0 .1 0 .1 0 .5-.1 1 .1 1.4.5 1 1.1 2.4 1.9 3.9 1.9 1.6 0 3-.9 3.9-1.9.4-.4.9-.6 1.4-.5 0 0 .1 0 .1 0C40.5 20.9 41.3 22.2 41.2 23.7z"/><polyline fill="none" stroke="#000" stroke-linecap="round" stroke-linejoin="round" stroke-miterlimit="10" stroke-width="2" points="34.2 22.5 34.8 25.3 33.2 28.2 31.2 25.3 31.8 22.5"/><ellipse cx="33" cy="16.8" fill="none" stroke="#000" stroke-linecap="round" stroke-linejoin="round" stroke-miterlimit="10" stroke-width="2" rx="14.6" ry="14.8"/><path fill="none" stroke="#000" stroke-linecap="round" stroke-linejoin="round" stroke-miterlimit="10" stroke-width="2" d="M47.6,16.8c0,5.4-2.9,10.1-7.1,12.7c-2.2,1.3-4.8,2.1-7.5,2.1s-5.3-0.8-7.5-2.1c-4.3-2.6-7.1-7.3-7.1-12.7
				C18.4,8.6,24.9,2,33,2C41.1,2,47.6,8.6,47.6,16.8z"/><line x1="33" x2="33" y1="31.6" y2="38" fill="none" stroke="#000" stroke-linecap="round" stroke-linejoin="round" stroke-miterlimit="10" stroke-width="2"/><g><path fill="none" stroke="#000" stroke-linecap="round" stroke-linejoin="round" stroke-miterlimit="10" stroke-width="2" d="M54.8 38V21.5c0-2.6-2.1-4.7-4.7-4.7h-2.5M11.2 38V21.5c0-2.6 2.1-4.7 4.7-4.7h2.5"/></g></svg>