<svg xmlns="http://www.w3.org/2000/svg" enable-background="new 0 0 32 32" viewBox="0 0 32 32"><path d="M10.7070313 18.2929688c-.390625-.390625-1.0234375-.390625-1.4140625 0l-2 2c-.390625.390625-.390625 1.0234375 0 1.4140625l2 2C9.4882813 23.9023438 9.7441406 24 10 24s.5117188-.0976563.7070313-.2929688c.390625-.390625.390625-1.0234375 0-1.4140625L9.4140625 21l1.2929688-1.2929688C11.0976563 19.3164063 11.0976563 18.6835938 10.7070313 18.2929688zM17.2929688 23.7070313C17.4882813 23.9023438 17.7441406 24 18 24s.5117188-.0976563.7070313-.2929688l2-2c.390625-.390625.390625-1.0234375 0-1.4140625l-2-2c-.390625-.390625-1.0234375-.390625-1.4140625 0s-.390625 1.0234375 0 1.4140625L18.5859375 21l-1.2929688 1.2929688C16.9023438 22.6835938 16.9023438 23.3164063 17.2929688 23.7070313zM12.5527344 23.8945313C12.6962891 23.9663086 12.8486328 24 12.9990234 24c.3671875 0 .7197266-.2021484.8955078-.5527344l2-4c.2470703-.4941406.046875-1.0947266-.4472656-1.3417969-.4941406-.2480469-1.09375-.0473633-1.3417969.4472656l-2 4C11.8583984 23.046875 12.0585938 23.6474609 12.5527344 23.8945313z"/><path d="M28.5527344,7.1054688L27,7.8818359l-1-0.5V4.6181641l1-0.5l1.5527344,0.7763672
		c0.4951172,0.2470703,1.09375,0.046875,1.3417969-0.4472656c0.2470703-0.4941406,0.046875-1.0947266-0.4472656-1.3417969l-2-1
		c-0.28125-0.140625-0.6132813-0.140625-0.8945313,0l-2,1C24.2138672,3.2749023,24,3.6210938,24,4v1h-1.1842651
		c-0.4005737-1.1234131-1.444458-1.9351196-2.6911011-1.9874268C20.1156616,3.0114136,10.0251465,2,10,2
		C7.7939453,2,6,3.7944336,6,6v8.1842651C4.838501,14.5983887,4,15.6980591,4,17v8H3c-0.5527344,0-1,0.4477539-1,1
		c0,2.2055664,1.7939453,4,4,4h16c2.2060547,0,4-1.7944336,4-4c0-0.5522461-0.4472656-1-1-1h-1v-8c0-1.6542969-1.3457031-3-3-3h-7
		V9.6051025c0,0,6.1156616-0.6165161,6.1246338-0.6176758C21.3712769,8.9351196,22.4151611,8.1234131,22.8157349,7H24v1
		c0,0.3789063,0.2138672,0.7250977,0.5527344,0.8945313l2,1C26.6933594,9.9648438,26.8466797,10,27,10
		s0.3066406-0.0351563,0.4472656-0.1054688l2-1c0.4941406-0.2470703,0.6943359-0.8476563,0.4472656-1.3417969
		C29.6464844,7.0585938,29.0478516,6.8588867,28.5527344,7.1054688z M10,4c1.1045532,0,2,0.8954468,2,2s-0.8954468,2-2,2
		S8,7.1045532,8,6S8.8954468,4,10,4z M8,9.4436646c0.5900879,0.3441162,1.2668457,0.5557251,1.9978638,0.5561523
		C9.998291,9.9998169,9.9985962,10,9.9990234,10c0.0002441,0,0.0004272-0.000061,0.0006714-0.000061
		C9.9998169,9.999939,9.9998779,10,10,10c0.0003052,0,0.0006104-0.000061,0.0009155-0.000061
		C10.0335083,9.999939,12,9.8050537,12,9.8050537V14H8V9.4436646z M23.7314453,27C23.3857422,27.597168,22.7392578,28,22,28H6
		c-0.7392578,0-1.3857422-0.402832-1.7314453-1H23.7314453z M21,16c0.5517578,0,1,0.4487305,1,1v8H6v-8c0-0.5512695,0.4482422-1,1-1
		H21z M13.6444702,7.6304932C13.8687744,7.1312866,14,6.5818481,14,6s-0.1312256-1.1312866-0.3555298-1.6304932l3.6455688,0.364563
		C17.1088867,5.1200562,17,5.5461426,17,6s0.1089478,0.8799438,0.2901001,1.2659302L13.6444702,7.6304932z M20,7
		c-0.5517578,0-1-0.4487305-1-1s0.4482422-1,1-1s1,0.4487305,1,1S20.5517578,7,20,7z"/></svg>